<svg width="32" height="32" viewBox="0 0 32 32" fill="none" xmlns="http://www.w3.org/2000/svg">
<path d="M12.1258 28.0077C11.2874 27.9623 10.4985 27.5967 9.92182 26.9864C9.23195 26.3227 8.61633 25.5859 8.08582 24.789C7.25713 23.6024 6.60208 22.3035 6.14049 20.9317C5.6181 19.4559 5.34328 17.9038 5.32716 16.3384C5.28657 14.8023 5.66697 13.2844 6.42716 11.949C6.98392 10.9865 7.77807 10.1827 8.73382 9.61437C9.679 9.04846 10.7576 8.74384 11.8592 8.73171C12.6896 8.78083 13.5056 8.97064 14.2725 9.29304C14.8845 9.56237 15.5272 9.75171 16.1872 9.85571C16.9152 9.70319 17.6266 9.47991 18.3112 9.18904C19.1214 8.87268 19.9792 8.69552 20.8485 8.66504C20.9645 8.66504 21.0792 8.66504 21.1898 8.67837C23.0965 8.73304 24.8698 9.66904 25.9898 11.2117C25.1157 11.6792 24.3884 12.38 23.8887 13.236C23.389 14.0921 23.1364 15.07 23.1592 16.061C23.1504 16.8188 23.3024 17.5698 23.6051 18.2646C23.9078 18.9594 24.3543 19.5821 24.9152 20.0917C25.4258 20.5781 26.0203 20.9679 26.6698 21.2424C26.5365 21.6424 26.3832 22.029 26.2205 22.4184C25.8512 23.2787 25.3955 24.0994 24.8605 24.8677C24.3546 25.6374 23.7657 26.3492 23.1045 26.9904C22.5013 27.5889 21.6973 27.942 20.8485 27.981C20.129 27.9492 19.4221 27.7804 18.7658 27.4837C18.0581 27.1754 17.2975 27.0065 16.5258 26.9864C15.7324 27.002 14.9493 27.1699 14.2192 27.481C13.5886 27.7656 12.9148 27.9427 12.2258 28.005L12.1258 28.0077ZM16.3258 8.66504C16.2258 8.66504 16.1258 8.66504 16.0258 8.65304C16.0048 8.49433 15.9937 8.33447 15.9925 8.17437C16.0361 6.84255 16.5566 5.57069 17.4592 4.59037C17.964 4.02698 18.5759 3.56966 19.2592 3.24504C19.8959 2.91724 20.5918 2.72005 21.3058 2.66504C21.3258 2.83971 21.3258 3.01037 21.3258 3.17304C21.3071 4.48393 20.8145 5.74374 19.9392 6.71971C19.5153 7.288 18.9722 7.75663 18.348 8.0927C17.7238 8.42876 17.0336 8.62412 16.3258 8.66504Z" fill="black"/>
</svg>
