<?xml version="1.0" standalone="no"?>
<!DOCTYPE svg PUBLIC "-//W3C//DTD SVG 20010904//EN"
 "http://www.w3.org/TR/2001/REC-SVG-20010904/DTD/svg10.dtd">
<svg version="1.0" xmlns="http://www.w3.org/2000/svg"
 width="258.000000pt" height="258.000000pt" viewBox="0 0 258.000000 258.000000"
 preserveAspectRatio="xMidYMid meet">
<metadata>
Created by potrace 1.14, written by Peter Selinger 2001-2017
</metadata>
<g transform="translate(0.000000,258.000000) scale(0.100000,-0.100000)"
fill="#000000" stroke="none">
<path d="M685 1829 c-193 -53 -323 -195 -372 -406 -19 -85 -25 -320 -10 -426
12 -84 53 -119 92 -80 17 16 17 51 0 133 -8 38 -8 218 -1 280 9 69 49 189 80
238 53 85 168 159 271 177 99 17 196 6 290 -33 70 -28 70 -28 5 -100 -135
-150 -193 -359 -141 -507 45 -127 153 -197 294 -191 123 4 223 67 268 169 33
73 33 213 1 308 -28 82 -82 172 -141 235 -40 44 -42 48 -26 60 10 7 48 23 84
35 160 54 331 17 446 -95 53 -52 117 -163 131 -227 14 -66 23 -144 28 -244 10
-226 89 -337 279 -397 71 -22 91 -25 203 -34 68 -5 83 -4 97 10 33 34 9 78
-44 82 -128 9 -172 16 -229 33 -92 29 -143 69 -183 146 -19 38 -26 89 -32 236
-8 222 -99 415 -241 515 -164 116 -407 126 -590 24 l-50 -28 -80 39 c-43 21
-106 46 -139 54 -75 20 -208 17 -290 -6z m558 -258 c106 -114 153 -229 145
-361 -4 -63 -10 -87 -31 -118 -61 -93 -209 -112 -310 -40 -95 68 -91 274 9
426 33 51 120 142 134 142 4 0 28 -22 53 -49z"/>
<path d="M1670 1272 c-16 -13 -23 -29 -22 -52 1 -43 22 -63 64 -62 60 2 90 70
48 112 -25 25 -61 26 -90 2z"/>
<path d="M5 1030 c4 -6 11 -8 16 -5 5 4 9 -14 9 -39 0 -58 18 -60 22 -3 2 27
7 41 16 40 6 -2 12 2 12 7 0 6 -18 10 -41 10 -25 0 -38 -4 -34 -10z"/>
<path d="M90 996 c0 -52 20 -74 21 -24 l1 33 10 -27 c10 -29 38 -39 38 -14 0
8 4 17 9 21 6 3 8 -4 6 -15 -2 -12 1 -20 9 -20 8 0 12 15 12 45 -1 53 -21 60
-40 14 l-13 -31 -13 31 c-19 47 -40 40 -40 -13z"/>
</g>
</svg>
