<?xml version="1.0" encoding="UTF-8"?><svg id="Layer_2" xmlns="http://www.w3.org/2000/svg" viewBox="0 0 257.96 113.04"><defs><style>.cls-1{fill:#fff;stroke-width:0px;}</style></defs><g id="Layer_1-2"><path class="cls-1" d="m253.12,113.04c-55.47-.61-55.12-32.1-54.93-49.01.1-8.69-2.07-21.84-8.42-32.66-8.1-13.79-21.09-20.88-38.61-21.08-6.56-.07-15.41,2.33-24.02,7.07,14.14,12.46,21.82,28.84,21.63,46.18-.27,24.47-20.23,30.72-30.74,30.6-10.52-.12-30.33-6.8-30.06-31.28.19-17.34,8.23-33.54,22.65-45.69-8.51-4.94-17.3-7.53-23.86-7.6-16.29-.18-28.6,4.72-36.6,14.56-18.41,22.66-9.45,64.52-9.36,64.94.57,2.58-1.06,5.14-3.64,5.71-2.58.57-5.14-1.06-5.71-3.64-.1-.47-2.57-11.74-2.5-26.25.09-19.89,4.72-35.63,13.76-46.77C52.63,5.89,67.49-.21,86.86,0c10.05.11,21.73,4.23,32.08,11.09,10.5-6.63,22.27-10.49,32.32-10.38,20.81.23,36.98,9.15,46.76,25.8,9.25,15.75,9.8,32.77,9.74,37.62-.19,17.3-.43,38.82,45.46,39.33,2.64.03,4.76,2.2,4.74,4.84-.03,2.64-2.2,4.76-4.84,4.74ZM118.82,22.8c-11.6,8.89-21.07,22.4-21.27,40.18-.23,20.76,18.45,21.57,20.59,21.59s20.83-.37,21.06-21.13c.2-17.78-8.98-31.5-20.38-40.64Zm47.68,35.13c-2.69,2.63-2.74,6.94-.11,9.62,2.63,2.69,6.94,2.74,9.62.11s2.74-6.94.11-9.62-6.94-2.74-9.62-.11ZM0,82.66v-1.66h7.84v1.66h-2.92v7.88h-2v-7.88H0Zm9.14-1.66h2.49l2.63,6.42h.11l2.63-6.42h2.49v9.55h-1.96v-6.22h-.08l-2.47,6.17h-1.33l-2.47-6.19h-.08v6.24h-1.96v-9.55Z"/></g></svg>