<svg width="1440" height="1183" viewBox="0 0 1440 1183" fill="none" xmlns="http://www.w3.org/2000/svg">
<path d="M1730.09 562.948C1718.65 643.968 1688.47 723.858 1635.12 787.6C1583.66 849.094 1511.85 892.506 1431.41 904.987C1353.89 917.015 1277.98 898.855 1212.12 857.909C1181.55 838.897 1153.66 812.387 1139.34 779.24C1123.78 743.253 1125.14 702.848 1138.84 666.381C1165.86 594.443 1245.75 536.461 1325.94 555.833C1364.19 565.07 1393.64 593.688 1409.93 628.109C1426.22 662.529 1429.32 699.64 1427.17 736.253C1422.95 807.784 1394.8 883.218 1343.11 935.019C1315 963.184 1278.43 982.574 1238.59 988.469C1198.2 994.458 1158.21 986.389 1121.92 968.658C1047.45 932.268 994.231 865.895 927.255 819.028C854.269 767.953 765.916 736.086 675.325 739.341C635.738 740.759 597.377 748.798 561.24 764.965C528.355 779.669 498.187 799.099 468.093 818.595C436.123 839.319 403.756 860.41 368.176 874.749C329.282 890.433 283.767 902.685 241.333 899.647C222.805 898.318 203.078 892.266 192.209 876.454C182.776 862.725 179.595 844.875 181.059 828.573C184.271 792.958 206.291 759.823 231.874 735.404C283.904 685.755 349.333 652.563 410.68 615.631C469.813 580.028 532.199 539.545 567.202 478.833C583.699 450.212 582.222 413.733 554.555 392.456C520.944 366.586 471.037 370.037 431.439 376.779C398.667 382.363 366.974 393.133 335.029 401.976C303.911 410.592 269.231 421.039 236.536 417.34C224.207 415.939 209.85 412.332 207.072 398.555C203.702 381.81 215.423 364.574 224.201 351.362C247.329 316.547 282.696 287.035 297.752 247.499C308.01 220.591 300.783 195.104 275.885 179.534C263.862 172.02 249.671 167.649 235.86 164.536C212.769 159.333 189.138 156.119 165.673 152.955C142.106 149.771 118.21 147.455 94.9621 142.48C78.5013 138.959 60.5965 133.873 48.4498 121.735C21.3158 94.6002 45.0375 48.9424 19.0113 20.1276C-1.2379 -2.27172 -36.485 -1.06742 -64.3069 1.25404C-77.5711 2.36615 -76.451 22.7058 -63.0949 21.578C-34.6246 19.1996 6.31142 17.3485 11.9463 52.9862C15.1339 73.163 11.8284 94.2716 19.281 113.768C25.8521 130.983 39.4506 143.594 56.1516 151.45C73.0446 159.398 91.805 163.151 110.216 165.912C136.925 169.919 163.797 172.936 190.494 177.079C209.756 180.069 230 182.688 248.446 189.187C259.719 193.164 272.439 199.174 278.563 209.842C284.686 220.511 281.662 233.835 276.657 244.651C267.548 264.336 252.916 281.387 239.265 298.156C224.21 316.664 208.897 335.223 197.196 356.021C189.204 370.245 183.629 386.686 186.97 402.991C193.853 436.631 234.081 439.978 262.579 437.553C298.513 434.495 333.607 423.682 368.074 413.729C402.54 403.775 437.47 393.882 473.965 392.624C508.256 391.43 563.797 401.947 557.141 447.052C554.678 463.72 543.943 478.783 533.705 491.884C522.922 505.705 510.615 518.327 497.473 529.996C469.37 554.953 437.366 575.512 405.216 595.036C341.908 633.507 274.481 667.518 220.146 718.338C193.186 743.566 170.663 775.765 162.77 811.94C154.877 848.115 164.3 889.809 198.614 908.798C233.749 928.234 280.79 920.01 318.049 911.674C360.38 902.2 399.561 884.632 436.57 862.59C501.878 823.7 562.81 773.339 640.897 762.592C734.358 749.729 829.05 777.631 906.09 829.161C976.589 876.322 1030.97 944.826 1107.16 984.122C1144.24 1003.25 1186.12 1013.86 1228.19 1010.12C1270.26 1006.39 1308.75 990.746 1340.42 964.859C1399.72 916.366 1433.7 840.643 1444.61 766.921C1455.54 693.066 1444.48 604.918 1378.45 557.935C1310.88 509.851 1216.83 534.149 1162.41 590.659C1105.68 649.556 1087.66 743.617 1134.47 812.899C1155.37 843.83 1185.77 867.719 1218.78 885.328C1253.18 903.675 1289.92 918.655 1328.73 925.022C1408.65 938.109 1493.35 920.365 1561.98 878.136C1634.57 833.48 1687.87 763.292 1718.96 685.671C1734.25 647.485 1744.66 607.7 1750.39 567.105C1752.21 554.192 1731.94 549.901 1730.1 562.915L1730.09 562.948Z" fill="url(#paint0_linear_110_2)" fill-opacity="0.5"/>
<defs>
<filter id="filter0_f_110_2" x="652.265" y="20.0032" width="1020.09" height="1084.81" filterUnits="userSpaceOnUse" color-interpolation-filters="sRGB">
<feFlood flood-opacity="0" result="BackgroundImageFix"/>
<feBlend mode="normal" in="SourceGraphic" in2="BackgroundImageFix" result="shape"/>
<feGaussianBlur stdDeviation="75" result="effect1_foregroundBlur_110_2"/>
</filter>
<filter id="filter1_f_110_2" x="-42.3721" y="330.375" width="1037.03" height="852.499" filterUnits="userSpaceOnUse" color-interpolation-filters="sRGB">
<feFlood flood-opacity="0" result="BackgroundImageFix"/>
<feBlend mode="normal" in="SourceGraphic" in2="BackgroundImageFix" result="shape"/>
<feGaussianBlur stdDeviation="75" result="effect1_foregroundBlur_110_2"/>
</filter>
<linearGradient id="paint0_linear_110_2" x1="862.015" y1="183.388" x2="690.387" y2="1014.38" gradientUnits="userSpaceOnUse">
<stop stop-color="#D8E8F6"/>
<stop offset="1" stop-color="#77BCE5"/>
</linearGradient>
</defs>
</svg>
