<svg width="90" height="84" viewBox="0 0 90 84" fill="none" xmlns="http://www.w3.org/2000/svg">
<path d="M51.6947 56.9727C51.65 56.981 51.6082 56.9922 51.5664 57.0005C51.5664 57.0005 51.611 56.9922 51.6947 56.9727Z" fill="white"/>
<path d="M43.2912 33.3804V28.7617H43.3275V22.2097C43.3275 13.496 40.98 9.84111 34.2608 9.8049C31.8185 9.79097 29.6299 10.4707 28.0547 11.9081C34.7766 10.3593 35.1641 15.3958 35.0972 26.9761V27.5583H35.061V38.1468C35.061 46.8605 37.4085 50.5154 44.1276 50.5516C46.5699 50.5656 48.7585 49.8858 50.3338 48.4484C43.6118 49.9973 43.2243 44.9607 43.2912 33.3804Z" fill="white"/>
<path d="M75.4994 11.3863C75.4994 11.3863 63.9654 9.57562 63.9041 19.6516V40.1851C63.8427 53.8379 53.0001 56.6794 51.6953 56.9719C72.0534 52.7125 72.1761 40.1851 72.1761 40.1851V16.8547C72.3462 14.7571 73.0432 11.9741 75.4994 11.3863Z" fill="white"/>
<path d="M37.3963 7.76531C39.3302 7.76531 40.898 6.19881 40.898 4.26644C40.898 2.33407 39.3302 0.767578 37.3963 0.767578C35.4623 0.767578 33.8945 2.33407 33.8945 4.26644C33.8945 6.19881 35.4623 7.76531 37.3963 7.76531Z" fill="white"/>
<path d="M19.8299 7.76531C21.7638 7.76531 23.3316 6.19881 23.3316 4.26644C23.3316 2.33407 21.7638 0.767578 19.8299 0.767578C17.8959 0.767578 16.3281 2.33407 16.3281 4.26644C16.3281 6.19881 17.8959 7.76531 19.8299 7.76531Z" fill="white"/>
<path d="M67.8299 8.97136C69.7638 8.97136 71.3316 7.40487 71.3316 5.4725C71.3316 3.54013 69.7638 1.97363 67.8299 1.97363C65.8959 1.97363 64.3281 3.54013 64.3281 5.4725C64.3281 7.40487 65.8959 8.97136 67.8299 8.97136Z" fill="white"/>
<path d="M13.5 11.3863C13.5 11.3863 25.034 9.57562 25.0954 19.6516V40.1851C25.1567 53.8379 35.9993 56.6794 37.3041 56.9719C16.946 52.7097 16.8233 40.1823 16.8233 40.1823V16.8547C16.6533 14.7571 15.9562 11.9741 13.5 11.3863Z" fill="white"/>
</svg>
