<?xml version="1.0" encoding="UTF-8"?>
<svg id="Layer_2" data-name="Layer 2" xmlns="http://www.w3.org/2000/svg" version="1.1" viewBox="0 0 474.9 90.7">
  <defs>
    <style>
      .cls-1 {
        fill: #fff;
        stroke-width: 0px;
      }
    </style>
  </defs>
  <g id="Layer_1-2" data-name="Layer 1-2">
    <path class="cls-1" d="M179.8,90.7c-44.5-.5-44.2-25.8-44.1-39.3,0-7-1.7-17.5-6.8-26.2-6.5-11.1-16.9-16.8-31-16.9-5.3,0-12.4,1.9-19.3,5.7,11.3,10,17.5,23.1,17.3,37-.2,19.6-16.2,24.6-24.7,24.5-8.4,0-24.3-5.5-24.1-25.1.2-13.9,6.6-26.9,18.2-36.7-6.8-4-13.9-6-19.1-6.1-13.1-.1-23,3.8-29.4,11.7-14.8,18.2-7.6,51.8-7.5,52.1.5,2.1-.9,4.1-2.9,4.6-2.1.4-4.1-.8-4.6-2.9,0-.4-2.1-9.4-2-21,0-16,3.8-28.6,11-37.5C19,4.7,30.9-.2,46.5,0c8.1,0,17.4,3.4,25.7,8.9C80.6,3.6,90.1.5,98.1.6c16.7.2,29.7,7.3,37.5,20.7,7.4,12.6,7.9,26.3,7.8,30.2-.1,13.9-.3,31.1,36.5,31.5,2.1,0,3.8,1.8,3.8,3.9,0,2.1-1.8,3.8-3.9,3.8h0ZM72.1,18.3c-9.3,7.1-16.9,18-17.1,32.2-.2,16.7,14.8,17.3,16.5,17.3s16.7-.3,16.9-17c.2-14.3-7.2-25.3-16.4-32.6ZM110.3,46.5c-2.2,2.1-2.2,5.6,0,7.7,2.1,2.2,5.6,2.2,7.7,0s2.2-5.6,0-7.7c-2.1-2.2-5.6-2.2-7.7,0ZM166.7,67.9V22.5h10.4v5.8c2.6-4.7,8.3-7.1,13.4-7.1s11.2,2.7,13.6,8c3.6-6,8.9-8,14.8-8s16.1,5.2,16.1,17.3v29.5h-10.5v-27.7c0-5.3-2.7-9.3-8.8-9.3s-9.4,4.5-9.4,10.1v27h-10.6v-27.7c0-5.2-2.6-9.3-8.8-9.3s-9.4,4.3-9.4,10.1v27h-10.7,0ZM282.9,55c-2.4,7.9-9.6,14.4-20.5,14.4s-23.2-9-23.2-24.4,10.6-23.9,22.1-23.9,22.2,9.2,22.2,23.6-.2,3.3-.3,3.5h-33.2c.3,6.9,5.7,11.9,12.4,11.9s9.9-3.5,11.4-7.9l9.1,2.9h0ZM272.5,40.2c-.2-5.3-3.7-10.1-11.2-10.1s-10.7,5.2-11.1,10.1h22.3ZM287.6,67.9V22.5h10.4v5.8c2.6-4.7,8.3-7.1,13.5-7.1s11.2,2.7,13.6,8c3.5-6,8.9-8,14.8-8s16.1,5.2,16.1,17.3v29.5h-10.5v-27.7c0-5.3-2.7-9.3-8.8-9.3s-9.4,4.5-9.4,10.1v27h-10.6v-27.7c0-5.2-2.6-9.3-8.8-9.3s-9.4,4.3-9.4,10.1v27h-10.7,0ZM385.2,67.9h-10.8l-18.5-45.5h12l12,32.5,11.8-32.5h11.4l-17.8,45.5h0ZM414.5,86.3l10.9-23.8-19.4-40.1h12.2l13.1,28.8,12.2-28.8h11.5l-29,63.9h-11.6,0ZM455.4,60.3v-1.7h7.8v1.7h-2.9v7.9h-2v-7.9h-2.9,0ZM464.5,58.6h2.5l2.6,6.4h.1l2.6-6.4h2.5v9.6h-2v-6.2h0l-2.5,6.2h-1.3l-2.5-6.2h0v6.2h-2v-9.5h0Z"/>
  </g>
</svg>