<svg width="43" height="39" viewBox="0 0 43 39" fill="none" xmlns="http://www.w3.org/2000/svg">
<g clip-path="url(#clip0_25_33107)">
<path d="M26.4913 38.9805C26.4604 38.9863 26.4313 38.994 26.4023 38.9998C26.4023 38.9998 26.4333 38.994 26.4913 38.9805Z" fill="white"/>
<path d="M20.661 22.6185V19.4152H20.6862V14.8711C20.6862 8.82767 19.058 6.29284 14.398 6.26772C12.7041 6.25806 11.1862 6.72948 10.0938 7.72641C14.7557 6.6522 15.0245 10.1453 14.9781 18.1768V18.5806H14.953V25.9242C14.953 31.9676 16.5811 34.5024 21.2411 34.5276C22.935 34.5372 24.4529 34.0658 25.5454 33.0689C20.8834 34.1431 20.6146 30.65 20.661 22.6185Z" fill="white"/>
<path d="M43.0015 7.36513C43.0015 7.36513 35.0021 6.10931 34.9595 13.0975V27.3385C34.917 36.8074 27.3971 38.778 26.4922 38.9809C40.6115 36.0268 40.6966 27.3385 40.6966 27.3385V11.1577C40.8146 9.70289 41.298 7.77279 43.0015 7.36513Z" fill="white"/>
<path d="M16.5732 4.85326C17.9145 4.85326 19.0018 3.76682 19.0018 2.42663C19.0018 1.08644 17.9145 0 16.5732 0C15.2319 0 14.1445 1.08644 14.1445 2.42663C14.1445 3.76682 15.2319 4.85326 16.5732 4.85326Z" fill="white"/>
<path d="M4.38957 4.85326C5.73087 4.85326 6.81821 3.76682 6.81821 2.42663C6.81821 1.08644 5.73087 0 4.38957 0C3.04827 0 1.96094 1.08644 1.96094 2.42663C1.96094 3.76682 3.04827 4.85326 4.38957 4.85326Z" fill="white"/>
<path d="M37.6786 5.69018C39.0199 5.69018 40.1073 4.60374 40.1073 3.26355C40.1073 1.92335 39.0199 0.836914 37.6786 0.836914C36.3373 0.836914 35.25 1.92335 35.25 3.26355C35.25 4.60374 36.3373 5.69018 37.6786 5.69018Z" fill="white"/>
<path d="M0 7.36513C0 7.36513 7.99942 6.10931 8.04195 13.0975V27.3385C8.08449 36.8074 15.6044 38.778 16.5093 38.9809C2.38996 36.0249 2.30488 27.3365 2.30488 27.3365V11.1577C2.18693 9.70289 1.70353 7.77279 0 7.36513Z" fill="white"/>
</g>
<defs>
<clipPath id="clip0_25_33107">
<rect width="43" height="39" fill="white"/>
</clipPath>
</defs>
</svg>
