<?xml version="1.0" encoding="UTF-8"?><svg id="Layer_2" xmlns="http://www.w3.org/2000/svg" viewBox="0 0 306.68 177.12"><defs><style>.cls-1{fill:#fff;stroke-width:0px;}</style></defs><g id="Layer_1-2"><path class="cls-1" d="m287.19,151.14v-1.66h7.84v1.66h-2.92v7.88h-2v-7.88h-2.92Zm9.14-1.66h2.49l2.63,6.42h.11l2.63-6.42h2.49v9.55h-1.96v-6.22h-.08l-2.47,6.17h-1.33l-2.47-6.19h-.08v6.24h-1.96v-9.55ZM0,158.81v-45.25h10.31v5.76c2.6-4.65,8.27-7.06,13.38-7.06,5.95,0,11.15,2.69,13.57,7.99,3.53-5.95,8.83-7.99,14.68-7.99,8.18,0,15.98,5.2,15.98,17.19v29.36h-10.41v-27.6c0-5.3-2.7-9.29-8.73-9.29-5.67,0-9.39,4.46-9.39,10.03v26.85h-10.59v-27.6c0-5.2-2.6-9.29-8.74-9.29-5.76,0-9.38,4.27-9.38,10.03v26.85H0Zm115.56-12.92c-2.42,7.9-9.57,14.31-20.44,14.31-12.26,0-23.14-8.92-23.14-24.25,0-14.31,10.59-23.79,22.02-23.79,13.93,0,22.11,9.2,22.11,23.51,0,1.77-.19,3.25-.28,3.44h-33.08c.28,6.88,5.67,11.8,12.36,11.8s9.85-3.44,11.34-7.9l9.1,2.88Zm-10.31-14.68c-.19-5.3-3.72-10.03-11.15-10.03-6.78,0-10.68,5.2-11.05,10.03h22.21Zm15.02,27.6v-45.25h10.31v5.76c2.6-4.65,8.27-7.06,13.38-7.06,5.95,0,11.15,2.69,13.57,7.99,3.53-5.95,8.83-7.99,14.68-7.99,8.18,0,15.98,5.2,15.98,17.19v29.36h-10.41v-27.6c0-5.3-2.7-9.29-8.73-9.29-5.67,0-9.39,4.46-9.39,10.03v26.85h-10.59v-27.6c0-5.2-2.6-9.29-8.74-9.29-5.76,0-9.38,4.27-9.38,10.03v26.85h-10.68Zm97.16,0h-10.78l-18.4-45.25h11.89l11.99,32.33,11.71-32.33h11.34l-17.75,45.25Zm29.15,18.3l10.87-23.69-19.33-39.86h12.17l13.01,28.62,12.17-28.62h11.43l-28.81,63.56h-11.52Zm.33-86.21c-44.6-.49-45.06-25.07-44.91-38.68.08-6.99-.92-18.3-6.03-27-6.52-11.09-16.96-16.79-31.05-16.95-5.27-.06-12.39,1.87-19.32,5.69,11.37,10.02,17.55,23.2,17.4,37.14-.22,19.68-16.27,24.7-24.72,24.61s-24.39-5.47-24.17-25.15c.15-13.94,6.62-26.98,18.21-36.74-6.84-3.97-13.91-6.06-19.19-6.11-13.1-.15-23,3.79-29.44,11.71-14.81,18.22-7.6,51.89-7.53,52.22.46,2.08-.85,4.13-2.93,4.59-2.08.46-4.13-.85-4.59-2.92-.08-.38-2.06-9.44-2.01-21.11.07-16,3.79-28.65,11.07-37.61C85.67,4.73,97.62-.17,113.2,0c8.08.09,17.47,3.4,25.8,8.92,8.44-5.33,17.91-8.44,25.99-8.35,16.73.19,29.74,7.36,37.6,20.75,7.44,12.66,7.14,27.09,7.1,30.99-.15,13.91.39,30.48,37.3,30.89,2.13.02,3.83,1.77,3.81,3.89s-1.77,3.83-3.89,3.81ZM138.9,18.34c-9.33,7.15-16.95,18.01-17.11,32.31-.18,16.7,14.84,17.35,16.55,17.36s16.75-.3,16.94-16.99c.16-14.3-7.22-25.33-16.39-32.68Zm38.34,28.25c-2.16,2.11-2.2,5.58-.09,7.74,2.11,2.16,5.58,2.2,7.74.09,2.16-2.11,2.2-5.58.09-7.74s-5.58-2.2-7.74-.09Z"/></g></svg>