<svg width="375" height="812" viewBox="0 0 375 812" fill="none" xmlns="http://www.w3.org/2000/svg">
<path d="M664.869 768.39C630.516 804.248 587.521 832.754 539.096 844.895C492.381 856.61 442.287 852.027 399.034 829.044C357.354 806.896 327.192 770.427 309.988 726.349C302.009 705.889 297.988 682.696 302.875 661.142C308.175 637.737 323.21 618.28 342.798 605.239C381.438 579.513 440.617 579.83 472.411 618.448C487.581 636.87 491.602 661.667 487.211 684.562C482.82 707.458 471.111 726.905 457.039 744.2C429.55 777.99 389.12 805.032 345.747 811.881C322.161 815.601 297.614 811.923 276.296 800.4C254.678 788.724 238.254 770.249 227.058 748.349C204.08 703.402 202.024 651.349 186.389 603.944C169.353 552.284 138.068 504.539 93.2019 473.324C73.5976 459.681 52.2288 449.751 29.0403 444.64C7.94098 439.985 -13.529 438.648 -34.9874 437.37C-57.7868 436.019 -80.9096 434.705 -103.179 428.893C-127.526 422.545 -153.846 412.103 -173.237 395.229C-181.704 387.86 -189.067 377.725 -188.684 365.98C-188.349 355.784 -183.531 345.818 -177.023 338.3C-162.798 321.881 -140.381 313.499 -119.348 310.712C-76.5751 305.051 -33.1952 312.369 9.5473 316.362C50.7478 320.209 95.2547 322.825 133.75 305.533C151.895 297.379 164.165 278.834 158.389 258.305C151.38 233.355 126.073 216.977 104.569 205.959C86.7697 196.842 67.6461 190.676 49.0863 183.468C31.0067 176.447 10.5567 169.04 -3.90121 155.368C-9.35059 150.21 -14.9937 143.227 -11.4311 135.418C-7.09743 125.931 4.69198 121.667 13.629 118.325C37.1782 109.516 64.7446 107.759 86.0794 93.6945C100.605 84.1262 106.189 68.9247 99.7172 52.2166C96.5911 44.1507 91.3001 36.8512 85.7445 30.3105C76.4552 19.3753 66.1984 9.22643 56.0031 -0.837069C45.7664 -10.9477 35.061 -20.7491 25.6154 -31.6281C18.9268 -39.3305 12.0984 -48.3287 10.5578 -58.7222C7.12374 -81.9501 34.818 -95.8974 32.5163 -119.553C30.7185 -137.949 13.2844 -150.125 -0.964994 -159.059C-7.76037 -163.315 -14.4587 -152.868 -7.61346 -148.585C6.96901 -139.444 27.3781 -125.527 17.4134 -105.89C11.7705 -94.7738 2.6633 -85.5498 -0.679638 -73.2241C-3.63595 -62.344 -1.56336 -51.1908 3.69835 -41.2612C9.02008 -31.2167 16.7356 -22.5665 24.6354 -14.5327C36.0957 -2.87732 47.9867 8.34812 59.3927 20.0664C67.6223 28.5213 76.457 37.1493 83.0434 47.0408C87.0671 53.0884 91.0653 60.6648 90.2229 68.1504C89.3804 75.6361 83.1791 81.1188 76.9149 84.6455C65.5146 91.0637 52.3866 94.1811 39.8326 97.5139C25.9821 101.197 11.9888 104.812 -1.05829 110.84C-9.97616 114.968 -18.5176 121.065 -22.7083 130.326C-31.36 149.428 -13.142 165.655 1.47032 174.784C19.8952 186.293 40.6756 193.67 60.8468 201.243C81.0181 208.816 101.391 216.588 119.447 229.189C136.416 241.024 159.47 266.339 140.206 286.197C133.086 293.534 122.546 297.081 112.943 299.84C102.822 302.757 92.3922 304.529 81.8989 305.529C59.4583 307.669 36.7001 306.224 14.2406 304.214C-29.9952 300.271 -74.6307 292.633 -118.933 298.038C-140.918 300.725 -163.244 308.462 -179.927 323.462C-196.61 338.462 -206.902 362.461 -197.105 384.269C-187.07 406.595 -161.448 419.578 -140.505 428.962C-116.71 439.621 -91.5538 445.143 -65.8535 447.67C-20.5035 452.131 26.8171 449.344 68.3164 472.33C117.986 499.841 153.742 547.925 172.572 601.278C189.801 650.105 191.66 703.631 214.432 750.635C225.513 773.511 241.943 793.923 263.569 807.322C285.196 820.722 309.337 826.945 333.826 825.636C379.698 823.182 423.04 798.106 454.54 765.661C486.101 733.16 512.136 685.633 497 638.512C481.509 590.289 427.489 568.213 381.119 576.394C332.788 584.918 290.617 624.828 288.545 675.994C287.621 698.838 293.787 721.648 303.445 742.3C313.513 763.822 325.908 784.53 342.367 801.736C376.265 837.15 423.445 859.077 471.587 863.094C522.501 867.347 573.198 852.007 615.822 824.947C636.79 811.634 655.971 795.764 673.183 777.797C678.657 772.081 670.405 762.619 664.884 768.376L664.869 768.39Z" fill="url(#paint0_linear_175_1990)" fill-opacity="0.5"/>
<defs>
<linearGradient id="paint0_linear_175_1990" x1="381.134" y1="266.481" x2="-4.67939" y2="606.326" gradientUnits="userSpaceOnUse">
<stop stop-color="#D8E8F6"/>
<stop offset="1" stop-color="#77BCE5"/>
</linearGradient>
</defs>
</svg>
