<svg width="1440" height="930" viewBox="0 0 1440 930" fill="none" xmlns="http://www.w3.org/2000/svg">
<path d="M1497.2 930.061C1519.1 851.221 1523.35 765.925 1499.92 686.175C1477.32 609.239 1428.85 540.748 1360.09 497.16C1293.84 455.158 1217 441.468 1140.26 452.683C1104.65 457.898 1068.49 471.054 1042.11 495.715C1013.47 522.486 998.565 560.067 996.549 598.971C992.572 675.713 1042.63 760.79 1123.88 775.077C1162.64 781.897 1201.07 767.429 1229.76 742.387C1258.44 717.344 1276.12 684.566 1288.78 650.141C1313.5 582.887 1317.84 502.488 1291.16 434.347C1276.64 397.295 1250.87 364.905 1216.7 343.581C1182.07 321.951 1142.19 313.366 1101.84 315.119C1019.03 318.718 943.72 358.292 863.595 374.489C776.28 392.141 682.554 386.046 600.811 346.861C565.089 329.741 533.137 307.042 506.472 277.781C482.203 251.161 462.313 221.294 442.517 191.396C421.493 159.624 400.25 127.354 373.365 99.9919C343.979 70.0717 307.153 40.6519 267.041 26.48C249.525 20.2934 229.024 17.9581 212.741 28.1094C198.608 36.9246 188.558 52.0167 183.385 67.5448C172.098 101.476 179.042 140.651 192.734 173.258C220.59 239.562 267.302 296.136 308.78 354.507C348.758 410.774 389.768 472.814 397.593 542.456C401.278 575.284 385.347 608.134 351.482 616.582C310.333 626.865 265.964 603.758 232.359 581.753C204.549 563.537 179.8 541 154.051 520.128C128.968 499.795 101.353 476.359 69.9035 466.684C58.0424 463.042 43.44 460.611 35.3874 472.13C25.6074 486.133 29.4639 506.617 32.2305 522.236C39.5188 563.393 60.1454 604.579 58.1479 646.838C56.7978 675.603 39.9886 696.078 10.9424 700.401C-3.0812 702.485 -17.8365 700.821 -31.7407 698.155C-54.9876 693.696 -77.934 687.2 -100.708 680.723C-123.584 674.224 -146.415 666.798 -169.713 662.068C-186.21 658.718 -204.655 656.225 -220.64 662.497C-256.357 676.528 -252.858 727.861 -288.231 743.875C-315.744 756.316 -347.573 741.126 -372.149 727.88C-383.864 721.56 -374.709 703.363 -362.916 709.734C-337.768 723.291 -300.983 741.347 -281.576 710.931C-270.591 693.709 -265.186 673.038 -250.563 658.144C-237.66 644.99 -220.155 638.864 -201.706 638.336C-183.044 637.801 -164.347 641.858 -146.367 646.684C-120.282 653.684 -94.4432 661.657 -68.3146 668.528C-49.4626 673.485 -29.8585 679.173 -10.353 680.587C1.56987 681.447 15.6327 681.021 25.5091 673.688C35.3855 666.356 37.9378 652.933 37.6721 641.018C37.1884 619.334 30.5899 597.855 24.7771 577.029C18.3729 554.046 11.7522 530.914 9.33683 507.174C7.69599 490.941 9.15489 473.642 18.7336 460.03C38.4859 431.944 76.7 444.952 101.855 458.563C133.572 475.726 161.422 499.662 189.039 522.56C216.655 545.458 244.722 568.485 277.674 584.223C308.63 599.02 363.747 611.575 375.67 567.568C380.073 551.305 376.252 533.207 372.102 517.106C367.741 500.127 361.503 483.639 354.12 467.69C338.332 433.583 317.21 401.946 295.541 371.202C252.881 310.637 204.664 252.515 175.164 184.215C160.532 150.316 152.753 111.799 159.974 75.4838C167.194 39.1688 192.494 4.71386 231.537 1.01965C271.513 -2.75625 311.348 23.581 342.171 46.1118C377.189 71.713 406.084 103.475 431.202 138.469C475.527 200.218 511.257 270.732 578.543 311.789C659.077 360.929 757.03 373.193 848.243 356.742C931.714 341.684 1008.94 300.621 1094.49 295.044C1136.12 292.329 1178.75 299.339 1215.82 319.573C1252.89 339.808 1281.93 369.533 1300.61 405.916C1335.6 474.068 1336.48 557.06 1317.02 628.999C1297.53 701.07 1252.17 777.454 1172.86 794.136C1091.7 811.208 1015.2 751.353 987.895 677.802C959.429 601.143 980.498 507.717 1051.1 462.914C1082.62 442.913 1120.03 433.164 1157.33 430.212C1196.19 427.141 1235.86 428.092 1273.98 437.765C1352.47 457.703 1423.02 507.816 1469.06 573.953C1517.75 643.897 1538.56 729.538 1536.04 813.115C1534.8 854.23 1528.44 894.86 1517.47 934.362C1513.98 946.927 1493.69 942.76 1497.2 930.095L1497.2 930.061Z" fill="url(#paint0_linear_175_1881)" fill-opacity="0.5"/>
<defs>
<linearGradient id="paint0_linear_175_1881" x1="549.777" y1="931.097" x2="724.529" y2="100.757" gradientUnits="userSpaceOnUse">
<stop stop-color="#D8E8F6"/>
<stop offset="1" stop-color="#77BCE5"/>
</linearGradient>
</defs>
</svg>
