<svg width="20" height="15" viewBox="0 0 20 15" fill="none" xmlns="http://www.w3.org/2000/svg">
<path d="M0 0.75C0 0.335786 0.335786 0 0.75 0H16.25C16.6642 0 17 0.335786 17 0.75C17 1.16421 16.6642 1.5 16.25 1.5H0.75C0.335786 1.5 0 1.16421 0 0.75ZM0 13.75C0 13.3358 0.335786 13 0.75 13H11.25C11.6642 13 12 13.3358 12 13.75C12 14.1642 11.6642 14.5 11.25 14.5H0.75C0.335786 14.5 0 14.1642 0 13.75ZM0.75 6.5C0.335786 6.5 0 6.83579 0 7.25C0 7.66421 0.335786 8 0.75 8H19.25C19.6642 8 20 7.66421 20 7.25C20 6.83579 19.6642 6.5 19.25 6.5H0.75Z" fill="#ffffff"/>
</svg>
