<svg width="20" height="15" viewBox="0 0 20 15" fill="none" xmlns="http://www.w3.org/2000/svg">
<path d="M3 0.75C3 0.335786 3.33579 0 3.75 0H19.25C19.6642 0 20 0.335786 20 0.75C20 1.16421 19.6642 1.5 19.25 1.5H3.75C3.33579 1.5 3 1.16421 3 0.75ZM8 13.75C8 13.3358 8.33579 13 8.75 13H19.25C19.6642 13 20 13.3358 20 13.75C20 14.1642 19.6642 14.5 19.25 14.5H8.75C8.33579 14.5 8 14.1642 8 13.75ZM0.75 6.5C0.335786 6.5 0 6.83579 0 7.25C0 7.66421 0.335786 8 0.75 8H19.25C19.6642 8 20 7.66421 20 7.25C20 6.83579 19.6642 6.5 19.25 6.5H0.75Z" fill="#ffffff"/>
</svg>
