<svg width="20" height="15" viewBox="0 0 20 15" fill="none" xmlns="http://www.w3.org/2000/svg">
<path d="M2 0.75C2 0.335786 2.33579 0 2.75 0H17.25C17.6642 0 18 0.335786 18 0.75C18 1.16421 17.6642 1.5 17.25 1.5H2.75C2.33579 1.5 2 1.16421 2 0.75ZM4 13.75C4 13.3358 4.33579 13 4.75 13H15.25C15.6642 13 16 13.3358 16 13.75C16 14.1642 15.6642 14.5 15.25 14.5H4.75C4.33579 14.5 4 14.1642 4 13.75ZM0.75 6.5C0.335786 6.5 0 6.83579 0 7.25C0 7.66421 0.335786 8 0.75 8H19.25C19.6642 8 20 7.66421 20 7.25C20 6.83579 19.6642 6.5 19.25 6.5H0.75Z" fill="#ffffff"/>
</svg>
