<svg width="11" height="21" viewBox="0 0 11 21" fill="none" xmlns="http://www.w3.org/2000/svg">
<g clip-path="url(#clip0_1432_83911)">
<path d="M1.09808 10.3964C1.0244 10.3277 0.965294 10.2449 0.924302 10.1529C0.88331 10.0609 0.861269 9.96159 0.859492 9.86089C0.857715 9.76018 0.87624 9.66016 0.913961 9.56677C0.951682 9.47338 1.00783 9.38854 1.07904 9.31733C1.15026 9.24611 1.2351 9.18996 1.32849 9.15224C1.42187 9.11452 1.5219 9.096 1.62261 9.09777C1.72331 9.09955 1.82262 9.12159 1.91462 9.16258C2.00662 9.20358 2.08942 9.26268 2.15808 9.33636L5.16408 12.3414L8.16908 9.33636C8.23775 9.26268 8.32055 9.20358 8.41255 9.16258C8.50454 9.12159 8.60386 9.09955 8.70456 9.09777C8.80526 9.096 8.90529 9.11452 8.99868 9.15224C9.09207 9.18996 9.1769 9.24611 9.24812 9.31733C9.31934 9.38854 9.37549 9.47338 9.41321 9.56677C9.45093 9.66016 9.46945 9.76018 9.46768 9.86089C9.4659 9.96159 9.44386 10.0609 9.40286 10.1529C9.36187 10.2449 9.30277 10.3277 9.22908 10.3964L5.68008 13.9464C5.60008 14.0263 5.50304 14.0871 5.39621 14.1243C5.28938 14.1614 5.17554 14.1739 5.0632 14.1608C4.95085 14.1477 4.84293 14.1094 4.74749 14.0487C4.65205 13.988 4.57158 13.9066 4.51208 13.8104L1.09808 10.3964Z" fill="#B3BED4"/>
</g>
<defs>
<clipPath id="clip0_1432_83911">
<rect width="10" height="20" fill="white" transform="translate(0.15625 0.875)"/>
</clipPath>
</defs>
</svg>
