<svg width="21" height="21" viewBox="0 0 21 21" fill="none" xmlns="http://www.w3.org/2000/svg">
<g clip-path="url(#clip0_1432_83863)">
<path d="M12.8856 13.4381C12.9903 13.5844 13.0389 13.7635 13.0226 13.9427C13.0063 14.1218 12.9261 14.2892 12.7966 14.4141L12.7116 14.4841L9.55762 16.7381L12.9696 19.1521C13.1164 19.2558 13.221 19.4088 13.2645 19.5831C13.308 19.7575 13.2875 19.9416 13.2066 20.1021L13.1496 20.1971C13.0459 20.3439 12.893 20.4485 12.7186 20.492C12.5443 20.5355 12.3601 20.515 12.1996 20.4341L12.1036 20.3761L7.83162 17.3541L7.82863 16.1311L11.8386 13.2641C11.9188 13.2067 12.0094 13.1657 12.1055 13.1434C12.2015 13.1211 12.301 13.1179 12.3982 13.1341C12.4954 13.1502 12.5885 13.1854 12.6722 13.2376C12.7558 13.2898 12.8283 13.3579 12.8856 13.4381ZM15.6806 13.2071L15.7756 13.2641L19.7866 16.1311L19.7836 17.3541L15.5116 20.3761L15.4166 20.4341C15.2731 20.5066 15.1101 20.531 14.9517 20.5038C14.7933 20.4767 14.6478 20.3993 14.5366 20.2831L14.4666 20.1971L14.4086 20.1021C14.336 19.9587 14.3114 19.7958 14.3384 19.6374C14.3654 19.4789 14.4426 19.3334 14.5586 19.2221L14.6456 19.1521L18.0576 16.7381L14.9036 14.4851L14.8186 14.4141C14.6897 14.2892 14.61 14.1221 14.5938 13.9433C14.5776 13.7645 14.626 13.5859 14.7304 13.4398C14.8347 13.2937 14.988 13.1899 15.1623 13.1472C15.3367 13.1045 15.5206 13.1258 15.6806 13.2071ZM16.0156 0.828125C16.5461 0.828125 17.0548 1.03884 17.4298 1.41391C17.8049 1.78898 18.0156 2.29769 18.0156 2.82812V12.1821L17.3526 11.6901L16.5156 11.6891V2.82812C16.5156 2.69552 16.4629 2.56834 16.3692 2.47457C16.2754 2.3808 16.1482 2.32812 16.0156 2.32812H2.01562C1.88302 2.32812 1.75584 2.3808 1.66207 2.47457C1.5683 2.56834 1.51562 2.69552 1.51562 2.82812V17.8281C1.51562 17.9607 1.5683 18.0879 1.66207 18.1817C1.75584 18.2754 1.88302 18.3281 2.01562 18.3281H5.13363L7.17163 19.8281H2.01562C1.48519 19.8281 0.976484 19.6174 0.601411 19.2423C0.226339 18.8673 0.015625 18.3586 0.015625 17.8281V2.82812C0.015625 2.29769 0.226339 1.78898 0.601411 1.41391C0.976484 1.03884 1.48519 0.828125 2.01562 0.828125L16.0156 0.828125ZM5.02462 15.8281L5.02763 16.8281H3.01562V15.8281H5.02462ZM7.21263 13.8281L5.74162 14.8281H5.01562V13.8281H7.21263ZM10.0156 11.8281V11.9231L8.68363 12.8281H7.01562V11.8281H10.0156ZM14.0156 9.82812V10.8281H7.01562V9.82812H14.0156ZM14.0156 7.82812V8.82812H7.01562V7.82812H14.0156ZM10.0156 5.82812V6.82812H5.01562V5.82812H10.0156ZM6.01562 3.82812V4.82812H3.01562V3.82812H6.01562Z" fill="#333333"/>
</g>
<defs>
<clipPath id="clip0_1432_83863">
<rect width="20" height="20" fill="white" transform="translate(0.015625 0.828125)"/>
</clipPath>
</defs>
</svg>
