<svg width="13" height="13" viewBox="0 0 13 13" fill="none" xmlns="http://www.w3.org/2000/svg">
<path d="M0.1 2.49902C0.1 1.17354 1.17452 0.0990235 2.5 0.0990235H8.9C10.2255 0.0990235 11.3 1.17354 11.3 2.49902V4.90142C11.0269 4.91387 10.7555 4.97484 10.5 5.08433V3.29902H0.9V8.89902C0.9 9.78268 1.61634 10.499 2.5 10.499H5.27973C5.26723 10.5401 5.25575 10.5815 5.24531 10.6233L5.07638 11.299H2.5C1.17452 11.299 0.1 10.2245 0.1 8.89902V2.49902ZM6.4838 10.0008L10.3473 6.13723C10.9316 5.55295 11.8789 5.55295 12.4632 6.13723C13.0475 6.72151 13.0475 7.66881 12.4632 8.25309L8.59966 12.1166C8.3744 12.3419 8.09215 12.5017 7.7831 12.579L6.58477 12.8785C6.06365 13.0088 5.59161 12.5368 5.72189 12.0157L6.02147 10.8173C6.09874 10.5083 6.25854 10.226 6.4838 10.0008Z" fill="#A9B4CC"/>
<path fill-rule="evenodd" clip-rule="evenodd" d="M2.5 0.199023C1.22975 0.199023 0.2 1.22877 0.2 2.49902V8.89902C0.2 10.1693 1.22975 11.199 2.5 11.199H4.9983L5.14829 10.599L2.5 10.599C1.56112 10.599 0.8 9.83791 0.8 8.89902V3.19902H10.6V4.9378C10.7947 4.86851 10.9965 4.82517 11.2 4.80777V2.49902C11.2 1.22877 10.1703 0.199023 8.9 0.199023H2.5ZM0 2.49902C0 1.11831 1.11929 -0.000976562 2.5 -0.000976562H8.9C10.2807 -0.000976562 11.4 1.11831 11.4 2.49902V4.99696L11.3046 5.00132C11.0432 5.01323 10.7837 5.07156 10.5394 5.17624L10.4 5.23597V3.39902H1V8.89902C1 9.72745 1.67157 10.399 2.5 10.399H5.41468L5.3754 10.5281C5.36339 10.5676 5.35236 10.6074 5.34232 10.6476L5.15445 11.399H2.5C1.11929 11.399 0 10.2797 0 8.89902V2.49902ZM12.3925 6.20794C11.8473 5.66272 10.9633 5.66272 10.4181 6.20794L6.55451 10.0715C6.34207 10.2839 6.19136 10.5501 6.11849 10.8416L5.81891 12.0399C5.70693 12.4878 6.11263 12.8935 6.56052 12.7815L7.75884 12.4819C8.05031 12.4091 8.3165 12.2584 8.52895 12.0459L12.3925 8.18238C12.9377 7.63715 12.9377 6.75317 12.3925 6.20794ZM10.2766 6.06652C10.9 5.44319 11.9106 5.44319 12.5339 6.06652C13.1572 6.68985 13.1572 7.70047 12.5339 8.3238L8.67037 12.1873C8.43229 12.4254 8.13399 12.5943 7.80735 12.676L6.60903 12.9756C6.01466 13.1241 5.47629 12.5858 5.62488 11.9914L5.92446 10.7931C6.00612 10.4664 6.17501 10.1681 6.41309 9.93006L10.2766 6.06652Z" fill="#A9B4CC"/>
</svg>
