<svg width="18" height="18" viewBox="0 0 18 18" fill="none" xmlns="http://www.w3.org/2000/svg">
<path d="M9.74805 0.001297L17.3018 0.00181007L17.402 0.015728L17.5009 0.0433249L17.562 0.0692573C17.641 0.104149 17.7149 0.15468 17.7798 0.219609L17.8206 0.263649L17.8811 0.345129L17.9183 0.410152L17.957 0.500467L17.9761 0.564594L17.9897 0.628536L17.999 0.721731L17.9996 8.25519C17.9996 8.6694 17.6638 9.00519 17.2496 9.00519C16.8699 9.00519 16.5561 8.72303 16.5064 8.35696L16.4996 8.25519L16.499 2.5593L2.55905 16.5043L8.24957 16.5052C8.62927 16.5052 8.94306 16.7873 8.99273 17.1534L8.99957 17.2552C8.99957 17.6349 8.71742 17.9487 8.35134 17.9983L8.24957 18.0052L0.713716 18.0044L0.684732 18.0016C0.61867 17.9969 0.555957 17.9831 0.496678 17.962L0.406546 17.9231L0.389358 17.9126C0.185157 17.8022 0.0387101 17.5992 0.00528908 17.3598L-0.00195312 17.2552V9.7513C-0.00195312 9.33708 0.333833 9.0013 0.748047 9.0013C1.12774 9.0013 1.44154 9.28345 1.4912 9.64953L1.49805 9.7513V15.4433L15.438 1.5003L9.74805 1.5013C9.36835 1.5013 9.05456 1.21914 9.00489 0.853067L8.99805 0.751297C8.99805 0.371601 9.2802 0.0578061 9.64628 0.00814366L9.74805 0.001297Z" fill="#FFFFFF"/>
</svg>
