<svg width="20" height="20" viewBox="0 0 20 20" fill="none" xmlns="http://www.w3.org/2000/svg">
<path d="M4.99975 6.2397e-10C5.31365 1.27585e-05 5.59434 0.19551 5.70318 0.489938L8.65496 8.47449C8.65923 8.48527 8.66326 8.49616 8.66704 8.50717L8.88951 9.10896L8.06145 11.195L7.43515 9.50081H2.5635L1.45072 12.5101C1.30706 12.8986 0.875658 13.0971 0.487155 12.9534C0.0986518 12.8098 -0.099833 12.3784 0.0438268 11.9899L1.33168 8.5071C1.33546 8.4961 1.33949 8.48521 1.34376 8.47444L4.29627 0.489881C4.40514 0.195461 4.68584 -1.27523e-05 4.99975 6.2397e-10ZM3.11816 8.00081H6.88062L4.99963 2.91271L3.11816 8.00081ZM11.8056 4.47329C11.919 4.18746 12.1955 3.99986 12.503 4C12.8105 4.00014 13.0868 4.18799 13.2 4.47391L18.7549 18.5042L19.2489 18.5042C19.6631 18.5042 19.9989 18.84 19.9989 19.2542C19.9989 19.6684 19.6631 20.0042 19.2488 20.0042L18.2587 20.0042C18.2551 20.0042 18.2514 20.0043 18.2478 20.0043C18.2425 20.0043 18.2372 20.0043 18.232 20.0042L16.7497 20.0041C16.3355 20.0041 15.9997 19.6683 15.9997 19.2541C15.9997 18.8399 16.3355 18.5041 16.7497 18.5041L17.1416 18.5041L15.9522 15.5H9.0423L7.84976 18.5042L8.24888 18.5042C8.66309 18.5042 8.99887 18.84 8.99886 19.2542C8.99885 19.6684 8.66306 20.0042 8.24885 20.0042L6.75893 20.0042C6.75565 20.0042 6.75237 20.0043 6.74909 20.0043C6.74303 20.0043 6.73697 20.0043 6.7309 20.0042L5.74968 20.0041C5.33546 20.0041 4.99969 19.6683 4.99969 19.2541C4.9997 18.8399 5.3355 18.5041 5.74971 18.5041L6.23592 18.5041L11.8056 4.47329ZM15.3583 14L12.5018 6.78508L9.63774 14H15.3583Z" fill="#FFFFFF"/>
</svg>
