<svg width="24" height="24" viewBox="0 0 26 24" fill="none" xmlns="http://www.w3.org/2000/svg">
<path d="M0.109375 1.71429C0.109375 0.766071 0.932192 0 1.95064 0H4.71255H7.47445C8.49291 0 9.31572 0.766071 9.31572 1.71429C9.31572 2.6625 8.49291 3.42857 7.47445 3.42857H6.55382V9.42857H19.4427V3.42857H18.5221C17.5036 3.42857 16.6808 2.6625 16.6808 1.71429C16.6808 0.766071 17.5036 0 18.5221 0H21.284H24.0459C25.0643 0 25.8872 0.766071 25.8872 1.71429C25.8872 2.6625 25.0643 3.42857 24.0459 3.42857H23.1252V11.1429V20.5714H24.0459C25.0643 20.5714 25.8872 21.3375 25.8872 22.2857C25.8872 23.2339 25.0643 24 24.0459 24H21.284H18.5221C17.5036 24 16.6808 23.2339 16.6808 22.2857C16.6808 21.3375 17.5036 20.5714 18.5221 20.5714H19.4427V12.8571H6.55382V20.5714H7.47445C8.49291 20.5714 9.31572 21.3375 9.31572 22.2857C9.31572 23.2339 8.49291 24 7.47445 24H4.71255H1.95064C0.932192 24 0.109375 23.2339 0.109375 22.2857C0.109375 21.3375 0.932192 20.5714 1.95064 20.5714H2.87128V11.1429V3.42857H1.95064C0.932192 3.42857 0.109375 2.6625 0.109375 1.71429Z" fill="#FAFAFA"/>
</svg>
