<svg width="20" height="20" viewBox="0 0 20 20" fill="none" xmlns="http://www.w3.org/2000/svg">
<path d="M9.99996 -0.000976562C15.5237 -0.000976562 20.0015 4.47687 20.0015 10.0006C20.0015 15.5243 15.5237 20.0021 9.99996 20.0021C4.47626 20.0021 -0.00158691 15.5243 -0.00158691 10.0006C-0.00158691 4.47687 4.47626 -0.000976562 9.99996 -0.000976562ZM9.99996 1.49902C5.30469 1.49902 1.49841 5.3053 1.49841 10.0006C1.49841 14.6959 5.30469 18.5021 9.99996 18.5021C14.6952 18.5021 18.5015 14.6959 18.5015 10.0006C18.5015 5.3053 14.6952 1.49902 9.99996 1.49902ZM9.99632 8.49961C10.376 8.49936 10.69 8.78131 10.7399 9.14735L10.7468 9.24911L10.7504 14.7507C10.7507 15.1649 10.4151 15.5009 10.0009 15.5012C9.62121 15.5014 9.30723 15.2195 9.25733 14.8535L9.25041 14.7517L9.24681 9.2501C9.24654 8.83588 9.58211 8.49988 9.99632 8.49961ZM10.0004 5.00184C10.552 5.00184 10.9991 5.44896 10.9991 6.0005C10.9991 6.55205 10.552 6.99917 10.0004 6.99917C9.44887 6.99917 9.00175 6.55205 9.00175 6.0005C9.00175 5.44896 9.44887 5.00184 10.0004 5.00184Z" fill="#ffffff"/>
</svg>
