<svg width="20" height="16" viewBox="0 0 20 16" fill="none" xmlns="http://www.w3.org/2000/svg">
<path d="M1.24929 13.5C1.93925 13.5 2.49858 14.0593 2.49858 14.7493C2.49858 15.4393 1.93925 15.9986 1.24929 15.9986C0.559326 15.9986 0 15.4393 0 14.7493C0 14.0593 0.559326 13.5 1.24929 13.5ZM4.75 14H19.25C19.6642 14 20 14.3358 20 14.75C20 15.1297 19.7178 15.4435 19.3518 15.4932L19.25 15.5H4.75C4.33579 15.5 4 15.1642 4 14.75C4 14.3703 4.28215 14.0565 4.64823 14.0068L4.75 14H19.25H4.75ZM1.24929 7C1.93925 7 2.49858 7.55933 2.49858 8.24929C2.49858 8.93925 1.93925 9.49858 1.24929 9.49858C0.559326 9.49858 0 8.93925 0 8.24929C0 7.55933 0.559326 7 1.24929 7ZM4.75 7.5H19.25C19.6642 7.5 20 7.83579 20 8.25C20 8.6297 19.7178 8.94349 19.3518 8.99315L19.25 9H4.75C4.33579 9 4 8.66421 4 8.25C4 7.8703 4.28215 7.55651 4.64823 7.50685L4.75 7.5H19.25H4.75ZM1.24929 0.5C1.93925 0.5 2.49858 1.05933 2.49858 1.74929C2.49858 2.43925 1.93925 2.99858 1.24929 2.99858C0.559326 2.99858 0 2.43925 0 1.74929C0 1.05933 0.559326 0.5 1.24929 0.5ZM4.75 1H19.25C19.6642 1 20 1.33579 20 1.75C20 2.1297 19.7178 2.44349 19.3518 2.49315L19.25 2.5H4.75C4.33579 2.5 4 2.16421 4 1.75C4 1.3703 4.28215 1.05651 4.64823 1.00685L4.75 1H19.25H4.75Z" fill="#FFFFFF"/>
</svg>
