<svg width="19" height="20" viewBox="0 0 19 20" fill="none" xmlns="http://www.w3.org/2000/svg">
<path d="M4.0001 0.750075C4.0001 0.395849 3.75227 0.089921 3.40576 0.0164048C3.06011 -0.0569269 2.7103 0.120936 2.5658 0.443109L2.56426 0.446447C2.56226 0.450746 2.55842 0.458889 2.55275 0.470492C2.5414 0.493733 2.52282 0.530627 2.49704 0.578153C2.44527 0.673637 2.36584 0.809528 2.2594 0.962551C2.04176 1.27544 1.73538 1.62496 1.35275 1.86399C1.00144 2.08344 0.894559 2.54613 1.11401 2.89743C1.33346 3.24873 1.79615 3.35562 2.14746 3.13616C2.27205 3.05833 2.38956 2.97481 2.5001 2.88772V5.25007C2.5001 5.66429 2.83589 6.00007 3.2501 6.00007C3.66431 6.00007 4.0001 5.66429 4.0001 5.25007V0.750075ZM18.4995 16.7501C18.4995 16.3359 18.1637 16.0001 17.7495 16.0001H8.74951C8.3353 16.0001 7.99951 16.3359 7.99951 16.7501C7.99951 17.1643 8.3353 17.5001 8.74951 17.5001H17.7495C18.1637 17.5001 18.4995 17.1643 18.4995 16.7501ZM18.4995 10.2437C18.4995 9.82952 18.1637 9.49374 17.7495 9.49374H8.74951C8.3353 9.49374 7.99951 9.82952 7.99951 10.2437C7.99951 10.658 8.3353 10.9937 8.74951 10.9937H17.7495C18.1637 10.9937 18.4995 10.658 18.4995 10.2437ZM18.4995 3.75008C18.4995 3.33586 18.1637 3.00008 17.7495 3.00008H8.74951C8.3353 3.00008 7.99951 3.33586 7.99951 3.75008C7.99951 4.16429 8.3353 4.50008 8.74951 4.50008H17.7495C18.1637 4.50008 18.4995 4.16429 18.4995 3.75008ZM3.15093 8.51996C2.84957 8.46678 2.47444 8.58635 2.28031 8.78046C1.98741 9.07335 1.51253 9.07333 1.21965 8.78043C0.926769 8.48752 0.926785 8.01265 1.21969 7.71977C1.77556 7.16393 2.65044 6.90848 3.41157 7.04278C3.809 7.11291 4.2173 7.29717 4.52722 7.64842C4.8426 8.00585 5 8.47275 5 9.00012C5 9.61953 4.72895 10.0801 4.39406 10.4206C4.1163 10.7029 3.76315 10.9311 3.48826 11.1087L3.40874 11.1602C3.21348 11.2871 3.05428 11.3971 2.92686 11.5001H4.25C4.66421 11.5001 5 11.8359 5 12.2501C5 12.6643 4.6642 13.0001 4.24999 13.0001H1.75C1.33579 13.0001 1 12.6643 1 12.2501C1 10.9365 1.98385 10.2972 2.57505 9.91303L2.63522 9.87393C2.95259 9.66776 3.16843 9.52754 3.32469 9.36869C3.45855 9.2326 3.5 9.13069 3.5 9.00012C3.5 8.77747 3.43865 8.68186 3.40247 8.64086C3.36083 8.59367 3.28475 8.54357 3.15093 8.51996ZM0.96967 19.2804C0.96967 19.2804 1.06251 19.3641 0.974262 19.2849L0.979618 19.2902L0.992904 19.3028C1.00287 19.3122 1.01509 19.3233 1.02956 19.336C1.05848 19.3613 1.09653 19.3928 1.14375 19.4282C1.2381 19.499 1.36996 19.5861 1.53959 19.6709C1.88131 19.8418 2.37043 20.0001 3 20.0001C3.63921 20.0001 4.19596 19.8187 4.60132 19.4606C5.00922 19.1001 5.21163 18.6032 5.19553 18.1011C5.18219 17.6847 5.02903 17.3054 4.76986 17.0001C5.02903 16.6948 5.18219 16.3155 5.19553 15.8991C5.21163 15.3969 5.00922 14.9 4.60132 14.5396C4.19596 14.1814 3.63921 14.0001 3 14.0001C2.37043 14.0001 1.88131 14.1584 1.53959 14.3293C1.36996 14.4141 1.2381 14.5012 1.14375 14.572C1.09653 14.6074 1.05848 14.6389 1.02956 14.6642C1.01509 14.6768 1.00287 14.688 0.992904 14.6973L0.979618 14.71L0.974228 14.7152L0.971894 14.7176L0.970907 14.7185L0.96967 14.7197C0.676777 15.0126 0.676777 15.4875 0.96967 15.7804C1.2586 16.0693 1.72462 16.0732 2.01834 15.7921C2.0217 15.7892 2.03018 15.7821 2.04375 15.772C2.0744 15.749 2.13004 15.7111 2.21041 15.6709C2.36869 15.5918 2.62957 15.5001 3 15.5001C3.36079 15.5001 3.53601 15.6 3.60812 15.6637C3.67768 15.7251 3.69823 15.7907 3.6963 15.8511C3.69423 15.9156 3.66403 16.0028 3.57278 16.0819C3.4845 16.1585 3.30962 16.2501 3 16.2501C2.58579 16.2501 2.25 16.5859 2.25 17.0001C2.25 17.4143 2.58579 17.7501 3 17.7501C3.30962 17.7501 3.4845 17.8417 3.57278 17.9183C3.66403 17.9974 3.69423 18.0845 3.6963 18.1491C3.69823 18.2094 3.67768 18.275 3.60812 18.3365C3.53601 18.4002 3.36079 18.5001 3 18.5001C2.62957 18.5001 2.36869 18.4084 2.21041 18.3293C2.13004 18.2891 2.0744 18.2512 2.04375 18.2282C2.03018 18.218 2.0217 18.2109 2.01834 18.208C1.72462 17.9269 1.2586 17.9308 0.96967 18.2197C0.676777 18.5126 0.676777 18.9875 0.96967 19.2804ZM0.971894 14.7176L0.970907 14.7185C0.977598 14.713 1.17182 14.5516 0.971894 14.7176Z" fill="#FFFFFF"/>
</svg>
