<svg width="20" height="20" viewBox="0 0 20 20" fill="none" xmlns="http://www.w3.org/2000/svg">
<path d="M0 3.25C0 1.45507 1.45507 0 3.25 0H12.75C14.5449 0 16 1.45507 16 3.25V6H14.5V3.25C14.5 2.2835 13.7165 1.5 12.75 1.5H3.25C2.2835 1.5 1.5 2.2835 1.5 3.25V10.75C1.5 11.7165 2.2835 12.5 3.25 12.5H6V14H3.25C1.45507 14 0 12.5449 0 10.75V3.25ZM17 11.25C17 11.9404 16.4404 12.5 15.75 12.5C15.0596 12.5 14.5 11.9404 14.5 11.25C14.5 10.5596 15.0596 10 15.75 10C16.4404 10 17 10.5596 17 11.25ZM7 10.25C7 8.45507 8.45507 7 10.25 7H16.75C18.5449 7 20 8.45507 20 10.25V16.75C20 18.5449 18.5449 20 16.75 20H10.25C8.45507 20 7 18.5449 7 16.75V10.25ZM10.25 8.5C9.2835 8.5 8.5 9.2835 8.5 10.25V16.75C8.5 16.9393 8.53005 17.1216 8.58565 17.2923L11.98 14.1069C12.845 13.2977 14.1892 13.2977 15.0542 14.1069L18.4246 17.2598C18.4736 17.0985 18.5 16.9273 18.5 16.75V10.25C18.5 9.2835 17.7165 8.5 16.75 8.5H10.25ZM10.25 18.5H16.75C16.9854 18.5 17.2099 18.4535 17.4149 18.3693L14.0295 15.2023C13.7411 14.9326 13.2931 14.9326 13.0047 15.2023L9.6167 18.3819C9.81308 18.4582 10.0267 18.5 10.25 18.5ZM3.75 3C4.16421 3 4.5 3.33579 4.5 3.75V4.25C4.5 4.66421 4.16421 5 3.75 5C3.33579 5 3 4.66421 3 4.25V3.75C3 3.33579 3.33579 3 3.75 3ZM4.5 6.75C4.5 6.33579 4.16421 6 3.75 6C3.33579 6 3 6.33579 3 6.75V7.25C3 7.66421 3.33579 8 3.75 8C4.16421 8 4.5 7.66421 4.5 7.25V6.75ZM12.25 3C12.6642 3 13 3.33579 13 3.75V4.25C13 4.66421 12.6642 5 12.25 5C11.8358 5 11.5 4.66421 11.5 4.25V3.75C11.5 3.33579 11.8358 3 12.25 3ZM4.5 9.75C4.5 9.33579 4.16421 9 3.75 9C3.33579 9 3 9.33579 3 9.75V10.25C3 10.6642 3.33579 11 3.75 11C4.16421 11 4.5 10.6642 4.5 10.25V9.75Z" fill="#FFFFFF"/>
</svg>
