<svg width="96" height="96" viewBox="0 0 96 96" fill="none" xmlns="http://www.w3.org/2000/svg">
<path d="M62.0011 56H58.8411L57.7211 54.92C61.6411 50.36 64.0011 44.44 64.0011 38C64.0011 23.64 52.3611 12 38.0011 12C24.3211 12 13.1211 22.56 12.1211 36H20.2011C21.2011 27 28.7211 20 38.0011 20C47.9611 20 56.0011 28.04 56.0011 38C56.0011 47.96 47.9611 56 38.0011 56C37.3211 56 36.6811 55.88 36.0011 55.8V63.88C36.6811 63.96 37.3211 64 38.0011 64C44.4411 64 50.3611 61.64 54.9211 57.72L56.0011 58.84V62L76.0011 81.96L81.9611 76L62.0011 56Z" fill="white"/>
<path d="M25.8812 43.2812L16.0013 53.1613L6.12125 43.2812L3.28125 46.1213L13.1613 56.0013L3.28125 65.8812L6.12125 68.7213L16.0013 58.8413L25.8812 68.7213L28.7212 65.8812L18.8413 56.0013L28.7212 46.1213L25.8812 43.2812Z" fill="white"/>
</svg>
