<svg width="20" height="20" viewBox="0 0 20 20" fill="none" xmlns="http://www.w3.org/2000/svg">
<path d="M8.5 6.25C8.5 5.83579 8.16421 5.5 7.75 5.5C7.33579 5.5 7 5.83579 7 6.25V13.75C7 14.1642 7.33579 14.5 7.75 14.5C8.16421 14.5 8.5 14.1642 8.5 13.75V6.25ZM13 6.25C13 5.83579 12.6642 5.5 12.25 5.5C11.8358 5.5 11.5 5.83579 11.5 6.25V13.75C11.5 14.1642 11.8358 14.5 12.25 14.5C12.6642 14.5 13 14.1642 13 13.75V6.25ZM10 0C4.47715 0 0 4.47715 0 10C0 15.5228 4.47715 20 10 20C15.5228 20 20 15.5228 20 10C20 4.47715 15.5228 0 10 0ZM1.5 10C1.5 5.30558 5.30558 1.5 10 1.5C14.6944 1.5 18.5 5.30558 18.5 10C18.5 14.6944 14.6944 18.5 10 18.5C5.30558 18.5 1.5 14.6944 1.5 10Z" fill="#ffffff"/>
</svg>
