<svg width="16" height="20" viewBox="0 0 16 20" fill="none" xmlns="http://www.w3.org/2000/svg">
<path d="M13.7541 11.9999C14.9961 11.9999 16.0029 13.0068 16.0029 14.2488V14.8242C16.0029 15.7185 15.6833 16.5833 15.1018 17.2627C13.5324 19.0962 11.1453 20.0011 7.99988 20.0011C4.85401 20.0011 2.468 19.0959 0.901698 17.2617C0.321936 16.5828 0.00341797 15.7193 0.00341797 14.8265V14.2488C0.00341797 13.0068 1.01027 11.9999 2.25229 11.9999H13.7541ZM13.7541 13.4999H2.25229C1.8387 13.4999 1.50342 13.8352 1.50342 14.2488V14.8265C1.50342 15.3622 1.69453 15.8802 2.04239 16.2876C3.29569 17.7553 5.26157 18.5011 7.99988 18.5011C10.7382 18.5011 12.7058 17.7553 13.9623 16.2873C14.3112 15.8797 14.5029 15.3608 14.5029 14.8242V14.2488C14.5029 13.8352 14.1676 13.4999 13.7541 13.4999ZM7.99988 0.00463867C10.7613 0.00463867 12.9999 2.24321 12.9999 5.00464C12.9999 7.76606 10.7613 10.0046 7.99988 10.0046C5.23845 10.0046 2.99988 7.76606 2.99988 5.00464C2.99988 2.24321 5.23845 0.00463867 7.99988 0.00463867ZM7.99988 1.50464C6.06688 1.50464 4.49988 3.07164 4.49988 5.00464C4.49988 6.93764 6.06688 8.50464 7.99988 8.50464C9.93287 8.50464 11.4999 6.93764 11.4999 5.00464C11.4999 3.07164 9.93287 1.50464 7.99988 1.50464Z" fill="#FFFFFF"/>
</svg>
