<svg width="19" height="16" viewBox="0 0 19 16" fill="none" xmlns="http://www.w3.org/2000/svg">
<path d="M10.5007 1.50289C10.5007 0.223839 9.00256 -0.468397 8.02851 0.360582L0.618721 6.6668C-0.202346 7.36558 -0.202333 8.63345 0.618752 9.33221L8.02853 15.6381C9.00259 16.4671 10.5007 15.7748 10.5007 14.4958V10.5081L16.5295 15.6387C17.5035 16.4677 19.0016 15.7754 19.0016 14.4964V1.50352C19.0016 0.224464 17.5035 -0.467772 16.5295 0.361208L10.5007 5.49209V1.50289ZM10.5007 8.53843V7.46179L17.5016 1.50352V14.4964L10.5007 8.53843ZM1.5909 7.80911L9.00069 1.50289V14.4958L1.5909 8.18988C1.47361 8.09006 1.4736 7.90893 1.5909 7.80911Z" fill="#FFFFFF"/>
</svg>
