<svg width="44" height="44" viewBox="0 0 44 44" fill="none" xmlns="http://www.w3.org/2000/svg">
<path fill-rule="evenodd" clip-rule="evenodd" d="M21.8369 41.3909C32.5469 41.3909 41.2269 32.7109 41.2269 22.0009C41.2269 11.2909 32.5469 2.61094 21.8369 2.61094C11.1269 2.61094 2.44688 11.3009 2.44688 22.0009C2.44688 32.7009 11.1269 41.3909 21.8369 41.3909ZM21.8369 43.5409C33.7369 43.5409 43.3769 33.8909 43.3769 22.0009C43.3769 10.1109 33.7369 0.460938 21.8369 0.460938C9.93688 0.460938 0.296875 10.1109 0.296875 22.0009C0.296875 33.8909 9.94688 43.5409 21.8369 43.5409Z" fill="white"/>
<path fill-rule="evenodd" clip-rule="evenodd" d="M27.4369 22.0009L17.5269 15.4009V28.6109L27.4369 22.0009ZM29.4369 20.7509C30.3369 21.3509 30.3369 22.6609 29.4369 23.2609L17.7169 31.0709C16.7169 31.7409 15.3769 31.0209 15.3769 29.8209V14.1909C15.3769 12.9909 16.7169 12.2709 17.7169 12.9409L29.4369 20.7509Z" fill="white"/>
</svg>
