<svg width="19" height="16" viewBox="0 0 19 16" fill="none" xmlns="http://www.w3.org/2000/svg">
<path d="M8.49998 1.50289C8.49998 0.223839 9.99811 -0.468397 10.9722 0.360582L18.3819 6.6668C19.203 7.36558 19.203 8.63345 18.3819 9.33221L10.9721 15.6381C9.99808 16.4671 8.49998 15.7748 8.49998 14.4958V10.5091L2.47215 15.639C1.4981 16.4679 0 15.7757 0 14.4966V1.50373C0 0.224678 1.49813 -0.467558 2.47218 0.361422L8.49998 5.49148V1.50289ZM8.49998 7.46117L1.5 1.50373V14.4966L8.49998 8.53947V7.46117ZM17.4098 7.80911L9.99998 1.50289V14.4958L17.4098 8.18988C17.5271 8.09006 17.5271 7.90893 17.4098 7.80911Z" fill="#FFFFFF"/>
</svg>
