<svg width="16" height="17" viewBox="0 0 16 17" fill="none" xmlns="http://www.w3.org/2000/svg">
<path d="M0.75 8.00016H15.2507C15.6649 8.00016 16.0007 8.33595 16.0007 8.75016C16.0007 9.12986 15.7185 9.44365 15.3524 9.49332L15.2507 9.50016L12.2763 9.50006C13.1552 10.3132 13.6124 11.2931 13.6124 12.4347C13.6124 15.2599 10.3804 17.0745 6.85767 16.6651C4.6233 16.4054 3.04896 15.5095 2.22285 13.9632C2.02767 13.5978 2.16562 13.1434 2.53097 12.9482C2.89632 12.7531 3.35071 12.891 3.54589 13.2564C4.11607 14.3236 5.2483 14.968 7.03083 15.1751C9.77376 15.4939 12.1124 14.1809 12.1124 12.4347C12.1124 11.2627 11.3072 10.3077 9.547 9.54851L9.431 9.5L0.75 9.50016C0.370304 9.50016 0.0565088 9.21801 0.00684643 8.85193L0 8.75016C0 8.37047 0.282154 8.05667 0.64823 8.00701L0.75 8.00016H15.2507H0.75ZM2.26098 4.12336C2.41313 1.29223 5.08273 -0.345335 8.58446 0.0616178C10.7732 0.315984 12.4484 1.11481 13.5674 2.47091C13.8311 2.79039 13.7858 3.2631 13.4663 3.52674C13.1469 3.79038 12.6742 3.74512 12.4105 3.42564C11.5584 2.393 10.2394 1.76405 8.4113 1.55159C5.69368 1.23576 3.76098 2.35648 3.76098 4.12336C3.76098 4.89538 3.99478 5.47149 4.59075 6.10449L4.71896 6.23719C4.81323 6.33272 4.91566 6.43239 4.96956 6.47631L5 6.49786H3.08082L3.05613 6.45893C2.91314 6.25256 2.1997 5.26354 2.26098 4.12336Z" fill="#ffffff"/>
</svg>
