<svg width="32" height="24" viewBox="0 0 32 24" fill="none" xmlns="http://www.w3.org/2000/svg">
<path d="M18.3785 21.98L10.5725 0.938789C10.4702 0.663032 10.2871 0.425396 10.0477 0.25764C9.80821 0.0898843 9.52381 0 9.23246 0C8.94112 0 8.65671 0.0898843 8.41725 0.25764C8.1778 0.425396 7.9947 0.663032 7.89243 0.938789L0.0864146 21.98C-0.042692 22.3383 -0.0266103 22.7337 0.131162 23.0801C0.288934 23.4265 0.575633 23.6959 0.928894 23.8297C1.28216 23.9635 1.6734 23.9509 2.01753 23.7947C2.36166 23.6384 2.63082 23.3511 2.76648 22.9953L5.11869 16.6553C5.12796 16.6302 5.14457 16.6086 5.1663 16.5933C5.18804 16.5781 5.21386 16.5699 5.24033 16.5698H13.2246C13.2511 16.5699 13.2769 16.5781 13.2986 16.5933C13.3204 16.6086 13.337 16.6302 13.3462 16.6553L15.6984 22.9953C15.8341 23.3511 16.1033 23.6384 16.4474 23.7947C16.7915 23.9509 17.1828 23.9635 17.536 23.8297C17.8893 23.6959 18.176 23.4265 18.3338 23.0801C18.4915 22.7337 18.5076 22.3383 18.3785 21.98ZM6.28959 13.4978L9.11082 5.89335C9.12018 5.86839 9.13683 5.84691 9.15856 5.83175C9.18028 5.8166 9.20606 5.80848 9.23246 5.80848C9.25886 5.80848 9.28464 5.8166 9.30636 5.83175C9.32809 5.84691 9.34474 5.86839 9.3541 5.89335L12.1753 13.4991C12.1827 13.519 12.1852 13.5404 12.1826 13.5614C12.18 13.5825 12.1724 13.6026 12.1604 13.62C12.1485 13.6374 12.1325 13.6517 12.1139 13.6616C12.0953 13.6714 12.0747 13.6766 12.0537 13.6766H6.41124C6.39025 13.6766 6.36958 13.6714 6.35099 13.6616C6.33241 13.6517 6.31646 13.6374 6.30451 13.62C6.29256 13.6026 6.28496 13.5825 6.28236 13.5614C6.27977 13.5404 6.28225 13.519 6.28959 13.4991V13.4978ZM25.415 6.3122C22.7011 6.29247 20.2708 7.88174 19.2352 10.3495C19.0868 10.7026 19.0833 11.1009 19.2255 11.4566C19.3676 11.8124 19.6437 12.0965 19.993 12.2465C20.3424 12.3965 20.7364 12.4 21.0883 12.2564C21.4403 12.1127 21.7214 11.8336 21.8697 11.4805C22.4474 10.1069 23.8063 9.21589 25.3382 9.20537C27.4406 9.1909 29.1378 10.9478 29.1378 13.075C29.1378 13.1006 29.128 13.1252 29.1104 13.1436C29.0928 13.162 29.0688 13.1728 29.0435 13.1736C27.6176 13.2137 25.9263 13.3097 24.4171 13.4892C20.8556 13.9127 18.7298 15.8754 18.7298 18.7397C18.7298 20.2645 19.2996 21.6329 20.3346 22.5981C21.3058 23.5022 22.6328 24 24.0639 24C26.0804 24 27.8166 23.474 29.1339 22.4732H29.1378C29.137 22.6632 29.1732 22.8514 29.2444 23.0273C29.3155 23.2031 29.4203 23.363 29.5526 23.4979C29.6849 23.6328 29.8422 23.7401 30.0155 23.8135C30.1888 23.887 30.3748 23.9252 30.5627 23.926C30.7507 23.9268 30.9369 23.8902 31.1108 23.8183C31.2848 23.7464 31.443 23.6405 31.5765 23.5067C31.7099 23.373 31.816 23.214 31.8887 23.0388C31.9614 22.8636 31.9992 22.6757 32 22.4857V13.0829C32 9.38882 29.0727 6.33916 25.415 6.3122ZM24.0639 21.1068C22.9236 21.1068 21.592 20.4868 21.592 18.7397C21.592 18.0381 21.8411 17.5469 22.4006 17.1465C22.945 16.7565 23.7796 16.4784 24.7515 16.3627C26.1253 16.199 27.667 16.1089 28.9888 16.0688C29.0065 16.0687 29.0239 16.0723 29.0402 16.0794C29.0564 16.0864 29.071 16.0967 29.0832 16.1096C29.0954 16.1225 29.1048 16.1378 29.111 16.1545C29.1171 16.1712 29.1198 16.189 29.1189 16.2068C28.9426 19.5024 27.2813 21.1068 24.0639 21.1068Z" fill="#BA0C2F"/>
</svg>
