<svg width="12" height="16" viewBox="0 0 12 16" fill="none" xmlns="http://www.w3.org/2000/svg">
<path d="M2.5 0.75C2.5 0.335786 2.16421 0 1.75 0C1.33579 0 1 0.335786 1 0.75V8C1 10.7614 3.23858 13 6 13C8.76142 13 11 10.7614 11 8V0.75C11 0.335786 10.6642 0 10.25 0C9.83579 0 9.5 0.335786 9.5 0.75V8C9.5 9.933 7.933 11.5 6 11.5C4.067 11.5 2.5 9.933 2.5 8V0.75ZM0.75 14.5C0.335786 14.5 0 14.8358 0 15.25C0 15.6642 0.335786 16 0.75 16H11.25C11.6642 16 12 15.6642 12 15.25C12 14.8358 11.6642 14.5 11.25 14.5H0.75Z" fill="#ffffff"/>
</svg>
