<!-- <svg width="38" height="24" viewBox="0 0 38 24" fill="none" xmlns="http://www.w3.org/2000/svg">
<path d="M0 4C0 1.79375 1.8934 0 4.22222 0H21.1111C23.4399 0 25.3333 1.79375 25.3333 4V20C25.3333 22.2062 23.4399 24 21.1111 24H4.22222C1.8934 24 0 22.2062 0 20V4ZM36.8851 2.2375C37.5712 2.5875 38 3.2625 38 4V20C38 20.7375 37.5712 21.4125 36.8851 21.7625C36.199 22.1125 35.3677 22.075 34.7146 21.6625L28.3813 17.6625L27.4444 17.0688V16V8V6.93125L28.3813 6.3375L34.7146 2.3375C35.3611 1.93125 36.1924 1.8875 36.8851 2.2375Z" fill="#0072CE"/>
</svg> -->



<svg width="24" height="24" viewBox="0 0 24 24" fill="none" xmlns="http://www.w3.org/2000/svg"> <path d="M13.75 4.5C15.5449 4.5 17 5.95507 17 7.75V7.923L20.8639 5.605C21.3638 5.30486 22 5.66493 22 6.248V17.75C22 18.333 21.364 18.6931 20.8641 18.3931L17 16.075V16.25C17 18.0449 15.5449 19.5 13.75 19.5H5.25C3.45507 19.5 2 18.0449 2 16.25V7.75C2 5.95507 3.45507 4.5 5.25 4.5H13.75ZM13.75 6H5.25C4.2835 6 3.5 6.7835 3.5 7.75V16.25C3.5 17.2165 4.2835 18 5.25 18H13.75C14.7165 18 15.5 17.2165 15.5 16.25V7.75C15.5 6.7835 14.7165 6 13.75 6ZM20.5 7.5731L17 9.6745V14.3254L20.5 16.4254V7.5731Z" fill="#04071E"/> </svg>