<svg width="24" height="24" viewBox="0 0 24 24" fill="none" xmlns="http://www.w3.org/2000/svg">
<path d="M0 1.324C0 0.593333 0.593333 0 1.324 0H22.676C23.4067 0 24 0.593333 24 1.324V22.676C23.9996 23.027 23.86 23.3636 23.6118 23.6118C23.3636 23.86 23.027 23.9996 22.676 24H1.324C0.972853 24 0.636089 23.8605 0.387791 23.6122C0.139493 23.3639 0 23.0271 0 22.676V1.324ZM10.1627 7.22C10.0824 7.16646 9.98916 7.13569 9.89281 7.13096C9.79646 7.12623 9.70063 7.14772 9.61553 7.19315C9.53043 7.23857 9.45924 7.30623 9.40954 7.38891C9.35985 7.47159 9.33351 7.5662 9.33333 7.66267V16.3373C9.33351 16.4338 9.35985 16.5284 9.40954 16.6111C9.45924 16.6938 9.53043 16.7614 9.61553 16.8069C9.70063 16.8523 9.79646 16.8738 9.89281 16.869C9.98916 16.8643 10.0824 16.8335 10.1627 16.78L16.668 12.444C16.7409 12.3951 16.8006 12.329 16.8419 12.2516C16.8832 12.1742 16.9048 12.0878 16.9048 12C16.9048 11.9122 16.8832 11.8258 16.8419 11.7484C16.8006 11.671 16.7409 11.6049 16.668 11.556L10.1627 7.22Z" fill="#BA0C2F"/>
</svg>
