

<svg width="14" height="18" viewBox="0 0 14 18"  xmlns="http://www.w3.org/2000/svg">
<path d="M0.0114279 15.8758C0.380214 12.7864 1.86084 11.5059 2.94231 10.5722C3.69001 9.92411 4.04951 9.58701 4.04951 9C4.04951 8.42103 3.69127 8.09036 2.94568 7.45554C1.85156 6.5246 0.353209 5.24933 0.0105848 2.11822C-0.0168056 1.85516 0.0141096 1.58956 0.101333 1.3386C0.188555 1.08764 0.330141 0.856913 0.516927 0.661348C0.716401 0.452464 0.959625 0.285694 1.23092 0.171787C1.50222 0.0578804 1.79557 -0.000635837 2.09207 9.86892e-06H11.4079C11.7048 -0.000873269 11.9986 0.0575249 12.2704 0.171436C12.5421 0.285347 12.7858 0.452241 12.9856 0.661348C13.1718 0.857183 13.3129 1.08801 13.3997 1.33894C13.4864 1.58988 13.517 1.85534 13.4894 2.11822C13.1481 5.23929 11.6552 6.50532 10.5653 7.42942C9.81253 8.06786 9.45049 8.40094 9.45049 9C9.45049 9.6067 9.81337 9.94661 10.5687 10.5971C11.6446 11.5252 13.1215 12.7961 13.4886 15.8758C13.5184 16.1376 13.4898 16.4025 13.4047 16.6531C13.3196 16.9038 13.18 17.1345 12.9949 17.3302C12.7946 17.5418 12.5498 17.7108 12.2764 17.8262C12.0029 17.9416 11.707 18.0008 11.4079 18H2.09207C1.79298 18.0008 1.49706 17.9416 1.22362 17.8262C0.950183 17.7108 0.705359 17.5418 0.505113 17.3302C0.320013 17.1345 0.180367 16.9038 0.0952969 16.6531C0.0102272 16.4025 -0.0183516 16.1376 0.0114279 15.8758ZM3.06636 16.0714H10.4155C11.0737 16.0714 11.2594 15.3482 10.7978 14.8998C9.68046 13.8214 7.42512 13.0492 7.42512 11.8125V7.71429C7.42512 6.91674 9.02854 6.30804 10.0205 5.01429C10.1843 4.80094 10.1678 4.50001 9.75177 4.50001H3.72925C3.37438 4.50001 3.29801 4.79853 3.4592 5.01228C4.43686 6.30804 6.07488 6.91273 6.07488 7.71429V11.8125C6.07488 13.0391 3.72418 13.7009 2.68238 14.901C2.26254 15.3848 2.40938 16.0714 3.06636 16.0714Z" fill={palette.}/>
</svg>

