<svg width="36" height="38" viewBox="0 0 36 38" fill="none" xmlns="http://www.w3.org/2000/svg">
<path d="M34.45 13.1L31.45 7.9L21.22 13.8V2H15.22V13.8L5 7.9L2 13.1L12.22 19L2 24.9L5 30.1L15.22 24.2V36H21.22V24.2L31.45 30.1L34.45 24.9L24.22 19L34.45 13.1Z" stroke="black" stroke-width="2.5" stroke-linecap="round" stroke-linejoin="round"/>
<path d="M34.45 13.1L31.45 7.9L21.22 13.8V2H15.22V13.8L5 7.9L2 13.1L12.22 19L2 24.9L5 30.1L15.22 24.2V36H21.22V24.2L31.45 30.1L34.45 24.9L24.22 19L34.45 13.1Z" stroke="url(#paint0_linear_175_497)" stroke-width="2.5" stroke-linecap="round" stroke-linejoin="round"/>
<defs>
<linearGradient id="paint0_linear_175_497" x1="18.225" y1="2" x2="18.225" y2="36" gradientUnits="userSpaceOnUse">
<stop stop-color="#FED9D1"/>
<stop offset="1" stop-color="#F1E0FF"/>
</linearGradient>
</defs>
</svg>
