<svg width="38" height="38" viewBox="0 0 38 38" fill="none" xmlns="http://www.w3.org/2000/svg">
<path d="M28 2H10C5.58172 2 2 5.58172 2 10V28C2 32.4183 5.58172 36 10 36H28C32.4183 36 36 32.4183 36 28V10C36 5.58172 32.4183 2 28 2Z" stroke="black" stroke-width="2.5" stroke-linecap="round" stroke-linejoin="round"/>
<path d="M28 2H10C5.58172 2 2 5.58172 2 10V28C2 32.4183 5.58172 36 10 36H28C32.4183 36 36 32.4183 36 28V10C36 5.58172 32.4183 2 28 2Z" stroke="url(#paint0_linear_175_494)" stroke-width="2.5" stroke-linecap="round" stroke-linejoin="round"/>
<path d="M19 10V28" stroke="black" stroke-width="2.5" stroke-linecap="round" stroke-linejoin="round"/>
<path d="M19 10V28" stroke="url(#paint1_linear_175_494)" stroke-width="2.5" stroke-linecap="round" stroke-linejoin="round"/>
<path d="M28 19H10" stroke="black" stroke-width="2.5" stroke-linecap="round" stroke-linejoin="round"/>
<path d="M28 19H10" stroke="url(#paint2_linear_175_494)" stroke-width="2.5" stroke-linecap="round" stroke-linejoin="round"/>
<defs>
<linearGradient id="paint0_linear_175_494" x1="19" y1="2" x2="19" y2="36" gradientUnits="userSpaceOnUse">
<stop stop-color="#FED9D1"/>
<stop offset="1" stop-color="#F1E0FF"/>
</linearGradient>
<linearGradient id="paint1_linear_175_494" x1="19.5" y1="10" x2="19.5" y2="28" gradientUnits="userSpaceOnUse">
<stop stop-color="#FED9D1"/>
<stop offset="1" stop-color="#F1E0FF"/>
</linearGradient>
<linearGradient id="paint2_linear_175_494" x1="19" y1="19" x2="19" y2="20" gradientUnits="userSpaceOnUse">
<stop stop-color="#FED9D1"/>
<stop offset="1" stop-color="#F1E0FF"/>
</linearGradient>
</defs>
</svg>
