<svg width="37" height="37" viewBox="0 0 37 37" fill="none" xmlns="http://www.w3.org/2000/svg">
<path d="M19.6675 2.5475L24.7975 12.7475L34.9975 17.8775C35.7275 18.2475 35.7275 19.2975 34.9975 19.6675L24.7975 24.7975L19.6675 34.9975C19.2975 35.7275 18.2475 35.7275 17.8775 34.9975L12.7475 24.7975L2.5475 19.6675C1.8175 19.2975 1.8175 18.2475 2.5475 17.8775L12.7475 12.7475L17.8775 2.5475C18.2475 1.8175 19.2975 1.8175 19.6675 2.5475Z" stroke="black" stroke-width="2.5" stroke-linecap="round" stroke-linejoin="round"/>
<path d="M19.6675 2.5475L24.7975 12.7475L34.9975 17.8775C35.7275 18.2475 35.7275 19.2975 34.9975 19.6675L24.7975 24.7975L19.6675 34.9975C19.2975 35.7275 18.2475 35.7275 17.8775 34.9975L12.7475 24.7975L2.5475 19.6675C1.8175 19.2975 1.8175 18.2475 2.5475 17.8775L12.7475 12.7475L17.8775 2.5475C18.2475 1.8175 19.2975 1.8175 19.6675 2.5475Z" stroke="url(#paint0_linear_175_495)" stroke-width="2.5" stroke-linecap="round" stroke-linejoin="round"/>
<defs>
<linearGradient id="paint0_linear_175_495" x1="18.7725" y1="2" x2="18.7725" y2="35.545" gradientUnits="userSpaceOnUse">
<stop stop-color="#FED9D1"/>
<stop offset="1" stop-color="#F1E0FF"/>
</linearGradient>
</defs>
</svg>
