<svg width="44" height="44" viewBox="0 0 44 44" fill="none" xmlns="http://www.w3.org/2000/svg">
<path d="M13.166 8.66162C15.166 7.33162 17.496 6.44161 20.046 6.12161C22.916 5.77161 25.696 6.20161 28.186 7.25161" stroke="black" stroke-width="2.5" stroke-linecap="round" stroke-linejoin="round"/>
<path d="M13.166 8.66162C15.166 7.33162 17.496 6.44161 20.046 6.12161C22.916 5.77161 25.696 6.20161 28.186 7.25161" stroke="url(#paint0_linear_175_496)" stroke-width="2.5" stroke-linecap="round" stroke-linejoin="round"/>
<path d="M12.626 14.5015C14.516 12.1415 17.296 10.4915 20.536 10.0915C23.936 9.67148 27.196 10.7215 29.646 12.7515" stroke="black" stroke-width="2.5" stroke-linecap="round" stroke-linejoin="round"/>
<path d="M12.626 14.5015C14.516 12.1415 17.296 10.4915 20.536 10.0915C23.936 9.67148 27.196 10.7215 29.646 12.7515" stroke="url(#paint1_linear_175_496)" stroke-width="2.5" stroke-linecap="round" stroke-linejoin="round"/>
<path d="M16.8955 41.3415C17.7555 40.2115 18.5055 39.0115 19.1455 37.7515C19.7955 36.5315 20.3355 35.2615 20.7855 33.9415C21.2155 32.6715 21.5555 31.3615 21.7955 30.0115C22.0255 28.7015 22.1655 27.3715 22.1955 26.0015C22.2255 24.6915 22.1655 23.3515 21.9955 22.0015" stroke="black" stroke-width="2.5" stroke-linecap="round" stroke-linejoin="round"/>
<path d="M16.8955 41.3415C17.7555 40.2115 18.5055 39.0115 19.1455 37.7515C19.7955 36.5315 20.3355 35.2615 20.7855 33.9415C21.2155 32.6715 21.5555 31.3615 21.7955 30.0115C22.0255 28.7015 22.1655 27.3715 22.1955 26.0015C22.2255 24.6915 22.1655 23.3515 21.9955 22.0015" stroke="url(#paint2_linear_175_496)" stroke-width="2.5" stroke-linecap="round" stroke-linejoin="round"/>
<path d="M27.5752 16.2715C28.7552 17.4115 29.5852 18.9215 29.8852 20.6215C29.9152 20.7615 29.9252 20.8915 29.9452 21.0315C29.9652 21.1715 29.9752 21.3015 29.9852 21.4415C30.2652 23.8415 30.2852 26.2315 30.0552 28.5615" stroke="black" stroke-width="2.5" stroke-linecap="round" stroke-linejoin="round"/>
<path d="M27.5752 16.2715C28.7552 17.4115 29.5852 18.9215 29.8852 20.6215C29.9152 20.7615 29.9252 20.8915 29.9452 21.0315C29.9652 21.1715 29.9752 21.3015 29.9852 21.4415C30.2652 23.8415 30.2852 26.2315 30.0552 28.5615" stroke="url(#paint3_linear_175_496)" stroke-width="2.5" stroke-linecap="round" stroke-linejoin="round"/>
<path d="M26.1953 41.5617C27.0153 40.0117 27.7253 38.3917 28.2953 36.7217C28.7453 35.4117 29.1253 34.0717 29.4253 32.7017" stroke="black" stroke-width="2.5" stroke-linecap="round" stroke-linejoin="round"/>
<path d="M26.1953 41.5617C27.0153 40.0117 27.7253 38.3917 28.2953 36.7217C28.7453 35.4117 29.1253 34.0717 29.4253 32.7017" stroke="url(#paint4_linear_175_496)" stroke-width="2.5" stroke-linecap="round" stroke-linejoin="round"/>
<path d="M31.4951 39.6017C32.3051 37.5517 32.9351 35.4217 33.3951 33.2317C34.2451 29.1617 34.4451 24.8917 33.9151 20.5317C33.6751 18.5617 32.9751 16.7817 31.9251 15.2417" stroke="black" stroke-width="2.5" stroke-linecap="round" stroke-linejoin="round"/>
<path d="M31.4951 39.6017C32.3051 37.5517 32.9351 35.4217 33.3951 33.2317C34.2451 29.1617 34.4451 24.8917 33.9151 20.5317C33.6751 18.5617 32.9751 16.7817 31.9251 15.2417" stroke="url(#paint5_linear_175_496)" stroke-width="2.5" stroke-linecap="round" stroke-linejoin="round"/>
<path d="M30.8555 8.67188C34.6055 11.1719 37.2855 15.2319 37.8755 20.0519C38.1255 22.0519 38.2255 24.0519 38.2055 26.0019" stroke="black" stroke-width="2.5" stroke-linecap="round" stroke-linejoin="round"/>
<path d="M30.8555 8.67188C34.6055 11.1719 37.2855 15.2319 37.8755 20.0519C38.1255 22.0519 38.2255 24.0519 38.2055 26.0019" stroke="url(#paint6_linear_175_496)" stroke-width="2.5" stroke-linecap="round" stroke-linejoin="round"/>
<path d="M37.9854 29.6519C37.8054 31.5219 37.4954 33.3519 37.0654 35.1419" stroke="black" stroke-width="2.5" stroke-linecap="round" stroke-linejoin="round"/>
<path d="M37.9854 29.6519C37.8054 31.5219 37.4954 33.3519 37.0654 35.1419" stroke="url(#paint7_linear_175_496)" stroke-width="2.5" stroke-linecap="round" stroke-linejoin="round"/>
<path d="M12.9854 39.8518C13.8454 38.8218 14.6054 37.7018 15.2654 36.5218C15.9154 35.3618 16.4754 34.1418 16.9154 32.8718C17.3654 31.5918 17.7054 30.2418 17.9154 28.8818C18.2454 26.8118 18.2954 24.6718 18.0254 22.4918C17.7554 20.3018 19.3153 18.3018 21.5053 18.0318C23.6953 17.7618 25.6953 19.3218 25.9653 21.5118C26.2753 24.0318 26.2654 26.5218 25.9854 28.9318C25.7954 30.5118 25.4853 32.0718 25.0653 33.6018C24.6553 35.0818 24.1253 36.5418 23.5053 37.9218C22.8753 39.3418 22.1453 40.6918 21.3153 41.9918" stroke="black" stroke-width="2.5" stroke-linecap="round" stroke-linejoin="round"/>
<path d="M12.9854 39.8518C13.8454 38.8218 14.6054 37.7018 15.2654 36.5218C15.9154 35.3618 16.4754 34.1418 16.9154 32.8718C17.3654 31.5918 17.7054 30.2418 17.9154 28.8818C18.2454 26.8118 18.2954 24.6718 18.0254 22.4918C17.7554 20.3018 19.3153 18.3018 21.5053 18.0318C23.6953 17.7618 25.6953 19.3218 25.9653 21.5118C26.2753 24.0318 26.2654 26.5218 25.9854 28.9318C25.7954 30.5118 25.4853 32.0718 25.0653 33.6018C24.6553 35.0818 24.1253 36.5418 23.5053 37.9218C22.8753 39.3418 22.1453 40.6918 21.3153 41.9918" stroke="url(#paint8_linear_175_496)" stroke-width="2.5" stroke-linecap="round" stroke-linejoin="round"/>
<path d="M13.0859 31.6718C13.2259 31.2718 13.3559 30.8718 13.4759 30.4618C14.1559 28.0918 14.3759 25.5618 14.0559 22.9718C13.5159 18.5818 16.6359 14.5918 21.0259 14.0518C22.3759 13.8818 23.6859 14.0718 24.8759 14.5218" stroke="black" stroke-width="2.5" stroke-linecap="round" stroke-linejoin="round"/>
<path d="M13.0859 31.6718C13.2259 31.2718 13.3559 30.8718 13.4759 30.4618C14.1559 28.0918 14.3759 25.5618 14.0559 22.9718C13.5159 18.5818 16.6359 14.5918 21.0259 14.0518C22.3759 13.8818 23.6859 14.0718 24.8759 14.5218" stroke="url(#paint9_linear_175_496)" stroke-width="2.5" stroke-linecap="round" stroke-linejoin="round"/>
<path d="M11.8557 34.4219C11.2257 35.5919 10.4557 36.6819 9.5957 37.6819" stroke="black" stroke-width="2.5" stroke-linecap="round" stroke-linejoin="round"/>
<path d="M11.8557 34.4219C11.2257 35.5919 10.4557 36.6819 9.5957 37.6819" stroke="url(#paint10_linear_175_496)" stroke-width="2.5" stroke-linecap="round" stroke-linejoin="round"/>
<path d="M6.71582 34.8917C7.62582 33.8017 8.38583 32.5817 8.95583 31.2717C9.99583 28.9017 10.4358 26.2217 10.0958 23.4617C9.83583 21.3617 10.1358 19.3217 10.8758 17.4917" stroke="black" stroke-width="2.5" stroke-linecap="round" stroke-linejoin="round"/>
<path d="M6.71582 34.8917C7.62582 33.8017 8.38583 32.5817 8.95583 31.2717C9.99583 28.9017 10.4358 26.2217 10.0958 23.4617C9.83583 21.3617 10.1358 19.3217 10.8758 17.4917" stroke="url(#paint11_linear_175_496)" stroke-width="2.5" stroke-linecap="round" stroke-linejoin="round"/>
<path d="M4.3457 31.4015C5.7657 29.2815 6.4557 26.6815 6.1257 23.9515C5.4957 18.8015 7.3857 13.9115 10.8257 10.5415" stroke="black" stroke-width="2.5" stroke-linecap="round" stroke-linejoin="round"/>
<path d="M4.3457 31.4015C5.7657 29.2815 6.4557 26.6815 6.1257 23.9515C5.4957 18.8015 7.3857 13.9115 10.8257 10.5415" stroke="url(#paint12_linear_175_496)" stroke-width="2.5" stroke-linecap="round" stroke-linejoin="round"/>
<path d="M41.8459 19.5616C41.4859 16.6516 40.5259 13.9716 39.0859 11.6216" stroke="black" stroke-width="2.5" stroke-linecap="round" stroke-linejoin="round"/>
<path d="M41.8459 19.5616C41.4859 16.6516 40.5259 13.9716 39.0859 11.6216" stroke="url(#paint13_linear_175_496)" stroke-width="2.5" stroke-linecap="round" stroke-linejoin="round"/>
<path d="M3.05566 15.5816C5.44566 8.54158 11.6857 3.12158 19.5657 2.15158C26.5657 1.29158 33.1557 4.15158 37.3557 9.19158" stroke="black" stroke-width="2.5" stroke-linecap="round" stroke-linejoin="round"/>
<path d="M3.05566 15.5816C5.44566 8.54158 11.6857 3.12158 19.5657 2.15158C26.5657 1.29158 33.1557 4.15158 37.3557 9.19158" stroke="url(#paint14_linear_175_496)" stroke-width="2.5" stroke-linecap="round" stroke-linejoin="round"/>
<path d="M2.24537 18.9116C1.96537 20.7016 1.91537 22.5616 2.14537 24.4416" stroke="black" stroke-width="2.5" stroke-linecap="round" stroke-linejoin="round"/>
<path d="M2.24537 18.9116C1.96537 20.7016 1.91537 22.5616 2.14537 24.4416" stroke="url(#paint15_linear_175_496)" stroke-width="2.5" stroke-linecap="round" stroke-linejoin="round"/>
<defs>
<linearGradient id="paint0_linear_175_496" x1="20.676" y1="6.00195" x2="20.676" y2="8.66162" gradientUnits="userSpaceOnUse">
<stop stop-color="#FED9D1"/>
<stop offset="1" stop-color="#F1E0FF"/>
</linearGradient>
<linearGradient id="paint1_linear_175_496" x1="21.136" y1="10" x2="21.136" y2="14.5015" gradientUnits="userSpaceOnUse">
<stop stop-color="#FED9D1"/>
<stop offset="1" stop-color="#F1E0FF"/>
</linearGradient>
<linearGradient id="paint2_linear_175_496" x1="19.5492" y1="22.0015" x2="19.5492" y2="41.3415" gradientUnits="userSpaceOnUse">
<stop stop-color="#FED9D1"/>
<stop offset="1" stop-color="#F1E0FF"/>
</linearGradient>
<linearGradient id="paint3_linear_175_496" x1="28.8941" y1="16.2715" x2="28.8941" y2="28.5615" gradientUnits="userSpaceOnUse">
<stop stop-color="#FED9D1"/>
<stop offset="1" stop-color="#F1E0FF"/>
</linearGradient>
<linearGradient id="paint4_linear_175_496" x1="27.8103" y1="32.7017" x2="27.8103" y2="41.5617" gradientUnits="userSpaceOnUse">
<stop stop-color="#FED9D1"/>
<stop offset="1" stop-color="#F1E0FF"/>
</linearGradient>
<linearGradient id="paint5_linear_175_496" x1="32.8514" y1="15.2417" x2="32.8514" y2="39.6017" gradientUnits="userSpaceOnUse">
<stop stop-color="#FED9D1"/>
<stop offset="1" stop-color="#F1E0FF"/>
</linearGradient>
<linearGradient id="paint6_linear_175_496" x1="34.5317" y1="8.67187" x2="34.5317" y2="26.0019" gradientUnits="userSpaceOnUse">
<stop stop-color="#FED9D1"/>
<stop offset="1" stop-color="#F1E0FF"/>
</linearGradient>
<linearGradient id="paint7_linear_175_496" x1="37.5254" y1="29.6519" x2="37.5254" y2="35.1419" gradientUnits="userSpaceOnUse">
<stop stop-color="#FED9D1"/>
<stop offset="1" stop-color="#F1E0FF"/>
</linearGradient>
<linearGradient id="paint8_linear_175_496" x1="19.591" y1="18.0015" x2="19.591" y2="41.9918" gradientUnits="userSpaceOnUse">
<stop stop-color="#FED9D1"/>
<stop offset="1" stop-color="#F1E0FF"/>
</linearGradient>
<linearGradient id="paint9_linear_175_496" x1="18.9809" y1="13.9902" x2="18.9809" y2="31.6718" gradientUnits="userSpaceOnUse">
<stop stop-color="#FED9D1"/>
<stop offset="1" stop-color="#F1E0FF"/>
</linearGradient>
<linearGradient id="paint10_linear_175_496" x1="10.7257" y1="34.4219" x2="10.7257" y2="37.6819" gradientUnits="userSpaceOnUse">
<stop stop-color="#FED9D1"/>
<stop offset="1" stop-color="#F1E0FF"/>
</linearGradient>
<linearGradient id="paint11_linear_175_496" x1="8.79582" y1="17.4917" x2="8.79582" y2="34.8917" gradientUnits="userSpaceOnUse">
<stop stop-color="#FED9D1"/>
<stop offset="1" stop-color="#F1E0FF"/>
</linearGradient>
<linearGradient id="paint12_linear_175_496" x1="7.5857" y1="10.5415" x2="7.5857" y2="31.4015" gradientUnits="userSpaceOnUse">
<stop stop-color="#FED9D1"/>
<stop offset="1" stop-color="#F1E0FF"/>
</linearGradient>
<linearGradient id="paint13_linear_175_496" x1="40.4659" y1="11.6216" x2="40.4659" y2="19.5616" gradientUnits="userSpaceOnUse">
<stop stop-color="#FED9D1"/>
<stop offset="1" stop-color="#F1E0FF"/>
</linearGradient>
<linearGradient id="paint14_linear_175_496" x1="20.2057" y1="2" x2="20.2057" y2="15.5816" gradientUnits="userSpaceOnUse">
<stop stop-color="#FED9D1"/>
<stop offset="1" stop-color="#F1E0FF"/>
</linearGradient>
<linearGradient id="paint15_linear_175_496" x1="2.12268" y1="18.9116" x2="2.12268" y2="24.4416" gradientUnits="userSpaceOnUse">
<stop stop-color="#FED9D1"/>
<stop offset="1" stop-color="#F1E0FF"/>
</linearGradient>
</defs>
</svg>
